<?xml version="1.0" encoding="UTF-8" standalone="no"?>
<!DOCTYPE svg PUBLIC "-//W3C//DTD SVG 1.1//EN" "http://www.w3.org/Graphics/SVG/1.1/DTD/svg11.dtd">
<svg width="100%" height="100%" viewBox="0 0 353 182" version="1.1" xmlns="http://www.w3.org/2000/svg" xmlns:xlink="http://www.w3.org/1999/xlink" xml:space="preserve" xmlns:serif="http://www.serif.com/" style="fill-rule:evenodd;clip-rule:evenodd;stroke-linecap:round;stroke-linejoin:round;stroke-miterlimit:1.5;">
    <defs>
        <filter id="dropshadow" x="-40%" y="-40%" width="500%" height="500%" filterUnits="userSpaceOnUse">
        <feGaussianBlur in="SourceAlpha" stdDeviation="1"/> <!-- stdDeviation is how much to blur -->
        <feOffset dx="5" dy="5" result="offsetblur"/> 
        <feOffset dx="-5" dy="-5" result="offsetblur"/>
        <feMerge> 
            <feMergeNode/>
            <feMergeNode in="SourceGraphic"/>
            <feMergeNode in="SourceGraphic"/>
        </feMerge>
        </filter>
        <filter id="dropshadow2" x="-40%" y="-40%" width="500%" height="500%" filterUnits="userSpaceOnUse">
        <feGaussianBlur in="SourceAlpha" stdDeviation="0.5"/> <!-- stdDeviation is how much to blur -->
        <feOffset dx="5" dy="5" result="offsetblur"/> 
        <feOffset dx="-5" dy="-5" result="offsetblur"/>
        <feMerge> 
            <feMergeNode/>
            <feMergeNode in="SourceGraphic"/>
            <feMergeNode in="SourceGraphic"/>
        </feMerge>
        </filter>
    </defs>
    <g transform="matrix(1,0,0,1,-1112.83,-298.585)">
        <g id="logo-4" serif:id="logo 4" transform="matrix(0.619796,0,0,0.619796,702.917,90.3668)">
            <g>
                <g id="logo-41" serif:id="logo 4">
                    <g id="grid" transform="matrix(0.555925,0,-0.178201,0.555925,637.279,297.458)">
                        <g>
                            <rect x="243" y="91" width="464" height="464" style="fill:#fff;stroke:#252121;stroke-width:50.92px;"/>
                            <g id="horizontal-lines" serif:id="horizontal lines" transform="matrix(0.934952,0,1.63698e-16,0.993051,34.3723,2.43112)">
                                <path d="M243,91L707,91" style="fill:none;stroke:#252121;stroke-width:34.06px;stroke-linecap:square;"/>
                                <g transform="matrix(1,0,0,1,0,92.8)">
                                    <path d="M243,91L707,91" style="fill:none;stroke:#252121;stroke-width:34.06px;stroke-linecap:square;"/>
                                </g>
                                <g transform="matrix(1,0,0,1,0,185.6)">
                                    <path d="M243,91L707,91" style="fill:none;stroke:#252121;stroke-width:34.06px;stroke-linecap:square;"/>
                                </g>
                                <g transform="matrix(1,0,0,1,0,278.4)">
                                    <path d="M243,91L707,91" style="fill:none;stroke:#252121;stroke-width:34.06px;stroke-linecap:square;"/>
                                </g>
                                <g transform="matrix(1,0,0,1,0,371.2)">
                                    <path d="M243,91L707,91" style="fill:none;stroke:#252121;stroke-width:34.06px;stroke-linecap:square;"/>
                                </g>
                                <g transform="matrix(1,0,0,1,5.68434e-14,464)">
                                    <path d="M243,91L707,91" style="fill:none;stroke:#252121;stroke-width:34.06px;stroke-linecap:square;"/>
                                </g>
                            </g>
                            <g id="vertical-lines" serif:id="vertical lines" transform="matrix(2.23503e-16,0.961152,-0.994081,5.93678e-17,796.088,-133.084)">
                                <path d="M243,91L707,91" style="fill:none;stroke:#252121;stroke-width:24.99px;"/>
                                <g transform="matrix(1,0,0,1,0,92.8)">
                                    <path d="M243,91L707,91" style="fill:none;stroke:#252121;stroke-width:24.99px;"/>
                                </g>
                                <g transform="matrix(1,0,0,1,0,185.6)">
                                    <path d="M243,91L707,91" style="fill:none;stroke:#252121;stroke-width:24.99px;"/>
                                </g>
                                <g transform="matrix(1,0,0,1,0,278.4)">
                                    <path d="M243,91L707,91" style="fill:none;stroke:#252121;stroke-width:24.99px;"/>
                                </g>
                                <g transform="matrix(1,0,0,1,0,371.2)">
                                    <path d="M243,91L707,91" style="fill:none;stroke:#252121;stroke-width:24.99px;"/>
                                </g>
                                <g transform="matrix(1,0,0,1,5.68434e-14,464)">
                                    <path d="M243,91L707,91" style="fill:none;stroke:#252121;stroke-width:24.99px;"/>
                                </g>
                            </g>
                        </g>
                    </g>
                    <g id="sub-title" serif:id="sub title" filter="url(#dropshadow2)" transform="matrix(1.4491,0,1.29759e-16,1.4491,-301.098,-229.85)">
                        <g>
                            <g transform="matrix(0.912458,0,-0.297891,1,213.109,-14)">
                                <path d="M1097,568.405C1097,563.351 1094.15,557.882 1089.32,553.654C1084.48,549.426 1078.23,546.936 1072.45,546.936L813.646,546.936C805.55,546.936 800,551.789 800,558.869C800,565.458 800,573.843 800,581.531C800,586.585 802.848,592.053 807.683,596.281C812.518,600.509 818.771,603 824.551,603L1083.35,603C1091.45,603 1097,598.147 1097,591.067C1097,584.477 1097,576.092 1097,568.405Z" style="fill:#e54344;stroke:#fff;stroke-width:5px;"/>
                            </g>
                            <g transform="matrix(0.581727,0,0,0.554026,305.761,332.679)">
                                <g transform="matrix(64,0,0,64,836.469,434.454)">
                                    <path d="M0.364,0.01C0.301,0.01 0.245,0 0.198,-0.02C0.151,-0.039 0.114,-0.069 0.086,-0.109C0.059,-0.149 0.045,-0.2 0.042,-0.261C0.041,-0.288 0.041,-0.318 0.041,-0.349C0.041,-0.38 0.041,-0.41 0.042,-0.439C0.045,-0.499 0.06,-0.549 0.087,-0.59C0.115,-0.63 0.153,-0.66 0.201,-0.68C0.248,-0.7 0.303,-0.71 0.364,-0.71C0.408,-0.71 0.449,-0.705 0.488,-0.695C0.526,-0.684 0.56,-0.669 0.59,-0.648C0.62,-0.626 0.644,-0.601 0.661,-0.57C0.678,-0.539 0.687,-0.503 0.688,-0.462C0.688,-0.456 0.686,-0.451 0.682,-0.447C0.677,-0.442 0.672,-0.44 0.666,-0.44L0.497,-0.44C0.487,-0.44 0.48,-0.442 0.475,-0.446C0.47,-0.45 0.466,-0.457 0.463,-0.467C0.454,-0.496 0.442,-0.515 0.425,-0.525C0.408,-0.535 0.388,-0.54 0.364,-0.54C0.335,-0.54 0.311,-0.532 0.294,-0.517C0.277,-0.501 0.267,-0.473 0.266,-0.434C0.264,-0.379 0.264,-0.323 0.266,-0.266C0.267,-0.227 0.277,-0.199 0.294,-0.184C0.311,-0.168 0.335,-0.16 0.364,-0.16C0.388,-0.16 0.408,-0.165 0.426,-0.176C0.443,-0.187 0.455,-0.206 0.463,-0.233C0.466,-0.244 0.469,-0.251 0.474,-0.255C0.48,-0.258 0.487,-0.26 0.497,-0.26L0.666,-0.26C0.672,-0.26 0.677,-0.258 0.682,-0.254C0.686,-0.25 0.688,-0.245 0.688,-0.239C0.687,-0.198 0.678,-0.162 0.661,-0.131C0.644,-0.1 0.62,-0.074 0.59,-0.053C0.56,-0.032 0.526,-0.016 0.488,-0.006C0.449,0.005 0.408,0.01 0.364,0.01Z" style="fill:#fff;fill-rule:nonzero;"/>
                                </g>
                                <g transform="matrix(64,0,0,64,882.421,434.454)">
                                    <path d="M0.364,0.01C0.3,0.01 0.245,-0 0.198,-0.02C0.151,-0.04 0.114,-0.07 0.086,-0.111C0.059,-0.151 0.045,-0.201 0.043,-0.261C0.042,-0.289 0.042,-0.318 0.042,-0.347C0.042,-0.377 0.042,-0.407 0.043,-0.436C0.045,-0.495 0.059,-0.545 0.086,-0.586C0.114,-0.627 0.151,-0.658 0.198,-0.679C0.245,-0.7 0.301,-0.71 0.364,-0.71C0.427,-0.71 0.482,-0.7 0.529,-0.679C0.576,-0.658 0.614,-0.627 0.641,-0.586C0.668,-0.545 0.683,-0.495 0.684,-0.436C0.685,-0.407 0.686,-0.377 0.686,-0.347C0.686,-0.318 0.685,-0.289 0.684,-0.261C0.682,-0.201 0.668,-0.151 0.641,-0.111C0.614,-0.07 0.577,-0.04 0.53,-0.02C0.483,-0 0.427,0.01 0.364,0.01ZM0.364,-0.16C0.392,-0.16 0.415,-0.169 0.433,-0.186C0.451,-0.203 0.46,-0.23 0.461,-0.267C0.462,-0.296 0.463,-0.324 0.463,-0.35C0.463,-0.378 0.462,-0.405 0.461,-0.433C0.46,-0.458 0.456,-0.478 0.448,-0.494C0.439,-0.51 0.428,-0.522 0.413,-0.529C0.399,-0.536 0.383,-0.54 0.364,-0.54C0.345,-0.54 0.329,-0.536 0.314,-0.529C0.299,-0.522 0.288,-0.51 0.28,-0.494C0.271,-0.478 0.267,-0.458 0.266,-0.433C0.265,-0.405 0.265,-0.378 0.265,-0.35C0.265,-0.324 0.265,-0.296 0.266,-0.267C0.267,-0.23 0.277,-0.203 0.295,-0.186C0.312,-0.169 0.335,-0.16 0.364,-0.16Z" style="fill:#fff;fill-rule:nonzero;"/>
                                </g>
                                <g transform="matrix(64,0,0,64,928.949,434.454)">
                                    <path d="M0.089,-0C0.082,-0 0.075,-0.003 0.07,-0.008C0.065,-0.013 0.062,-0.019 0.062,-0.026L0.062,-0.674C0.062,-0.681 0.065,-0.688 0.07,-0.693C0.075,-0.698 0.082,-0.7 0.089,-0.7L0.222,-0.7C0.234,-0.7 0.243,-0.697 0.249,-0.69C0.255,-0.683 0.259,-0.679 0.261,-0.676L0.421,-0.398L0.581,-0.676C0.583,-0.679 0.587,-0.683 0.593,-0.69C0.599,-0.697 0.608,-0.7 0.62,-0.7L0.753,-0.7C0.76,-0.7 0.767,-0.698 0.772,-0.693C0.777,-0.688 0.779,-0.681 0.779,-0.674L0.779,-0.026C0.779,-0.019 0.777,-0.013 0.772,-0.008C0.767,-0.003 0.76,-0 0.753,-0L0.603,-0C0.596,-0 0.59,-0.003 0.585,-0.008C0.58,-0.013 0.577,-0.019 0.577,-0.026L0.577,-0.35L0.487,-0.192C0.484,-0.187 0.479,-0.181 0.474,-0.176C0.469,-0.171 0.461,-0.168 0.451,-0.168L0.39,-0.168C0.381,-0.168 0.373,-0.171 0.368,-0.176C0.363,-0.181 0.358,-0.187 0.355,-0.192L0.265,-0.35L0.265,-0.026C0.265,-0.019 0.263,-0.013 0.258,-0.008C0.253,-0.003 0.246,-0 0.239,-0L0.089,-0Z" style="fill:#fff;fill-rule:nonzero;"/>
                                </g>
                                <g transform="matrix(64,0,0,64,982.837,434.454)">
                                    <path d="M0.088,-0C0.081,-0 0.075,-0.003 0.07,-0.008C0.065,-0.013 0.062,-0.019 0.062,-0.026L0.062,-0.674C0.062,-0.681 0.065,-0.688 0.07,-0.693C0.075,-0.698 0.081,-0.7 0.088,-0.7L0.38,-0.7C0.438,-0.7 0.489,-0.691 0.532,-0.674C0.575,-0.657 0.608,-0.63 0.632,-0.595C0.656,-0.56 0.668,-0.515 0.668,-0.462C0.668,-0.409 0.656,-0.365 0.632,-0.331C0.608,-0.296 0.575,-0.271 0.532,-0.255C0.489,-0.239 0.438,-0.231 0.38,-0.231L0.285,-0.231L0.285,-0.026C0.285,-0.019 0.282,-0.013 0.278,-0.008C0.273,-0.003 0.266,-0 0.259,-0L0.088,-0ZM0.281,-0.392L0.375,-0.392C0.394,-0.392 0.411,-0.398 0.425,-0.409C0.438,-0.421 0.445,-0.439 0.445,-0.464C0.445,-0.483 0.44,-0.5 0.429,-0.516C0.418,-0.531 0.4,-0.538 0.375,-0.538L0.281,-0.538L0.281,-0.392Z" style="fill:#fff;fill-rule:nonzero;"/>
                                </g>
                                <g transform="matrix(64,0,0,64,1023.89,434.454)">
                                    <path d="M0.026,-0C0.02,-0 0.015,-0.002 0.011,-0.007C0.007,-0.011 0.005,-0.016 0.005,-0.022C0.005,-0.025 0.005,-0.027 0.006,-0.029L0.234,-0.669C0.237,-0.676 0.241,-0.683 0.248,-0.69C0.255,-0.697 0.264,-0.7 0.276,-0.7L0.459,-0.7C0.472,-0.7 0.481,-0.697 0.488,-0.69C0.495,-0.683 0.499,-0.676 0.501,-0.669L0.73,-0.029C0.731,-0.027 0.731,-0.025 0.731,-0.022C0.731,-0.016 0.729,-0.011 0.725,-0.007C0.72,-0.002 0.715,-0 0.709,-0L0.555,-0C0.544,-0 0.535,-0.003 0.53,-0.008C0.525,-0.013 0.521,-0.018 0.519,-0.023L0.488,-0.107L0.247,-0.107L0.216,-0.023C0.214,-0.018 0.211,-0.013 0.205,-0.008C0.201,-0.003 0.192,-0 0.18,-0L0.026,-0ZM0.293,-0.276L0.442,-0.276L0.367,-0.501L0.293,-0.276Z" style="fill:#fff;fill-rule:nonzero;"/>
                                </g>
                                <g transform="matrix(64,0,0,64,1070.93,434.454)">
                                    <path d="M0.088,-0C0.081,-0 0.075,-0.003 0.07,-0.008C0.065,-0.013 0.062,-0.019 0.062,-0.026L0.062,-0.674C0.062,-0.681 0.065,-0.688 0.07,-0.693C0.075,-0.698 0.081,-0.7 0.088,-0.7L0.221,-0.7C0.233,-0.7 0.242,-0.697 0.247,-0.692C0.252,-0.687 0.256,-0.682 0.258,-0.679L0.464,-0.348L0.464,-0.674C0.464,-0.681 0.467,-0.688 0.472,-0.693C0.477,-0.698 0.484,-0.7 0.491,-0.7L0.641,-0.7C0.648,-0.7 0.655,-0.698 0.66,-0.693C0.665,-0.688 0.667,-0.681 0.667,-0.674L0.667,-0.026C0.667,-0.019 0.665,-0.013 0.66,-0.008C0.655,-0.003 0.648,-0 0.641,-0L0.509,-0C0.497,-0 0.488,-0.003 0.483,-0.009C0.477,-0.014 0.473,-0.018 0.471,-0.021L0.265,-0.334L0.265,-0.026C0.265,-0.019 0.263,-0.013 0.258,-0.008C0.253,-0.003 0.246,-0 0.239,-0L0.088,-0Z" style="fill:#fff;fill-rule:nonzero;"/>
                                </g>
                                <g transform="matrix(64,0,0,64,1117.65,434.454)">
                                    <path d="M0.088,-0C0.081,-0 0.075,-0.003 0.07,-0.008C0.065,-0.013 0.062,-0.019 0.062,-0.026L0.062,-0.674C0.062,-0.681 0.065,-0.688 0.07,-0.693C0.075,-0.698 0.081,-0.7 0.088,-0.7L0.258,-0.7C0.265,-0.7 0.272,-0.698 0.277,-0.693C0.281,-0.688 0.284,-0.681 0.284,-0.674L0.284,-0.026C0.284,-0.019 0.281,-0.013 0.277,-0.008C0.272,-0.003 0.265,-0 0.258,-0L0.088,-0Z" style="fill:#fff;fill-rule:nonzero;"/>
                                </g>
                                <g transform="matrix(64,0,0,64,1139.8,434.454)">
                                    <path d="M0.364,0.01C0.3,0.01 0.245,-0 0.198,-0.02C0.151,-0.04 0.114,-0.07 0.086,-0.111C0.059,-0.151 0.045,-0.201 0.043,-0.261C0.042,-0.289 0.042,-0.318 0.042,-0.347C0.042,-0.377 0.042,-0.407 0.043,-0.436C0.045,-0.495 0.059,-0.545 0.086,-0.586C0.114,-0.627 0.151,-0.658 0.198,-0.679C0.245,-0.7 0.301,-0.71 0.364,-0.71C0.427,-0.71 0.482,-0.7 0.529,-0.679C0.576,-0.658 0.614,-0.627 0.641,-0.586C0.668,-0.545 0.683,-0.495 0.684,-0.436C0.685,-0.407 0.686,-0.377 0.686,-0.347C0.686,-0.318 0.685,-0.289 0.684,-0.261C0.682,-0.201 0.668,-0.151 0.641,-0.111C0.614,-0.07 0.577,-0.04 0.53,-0.02C0.483,-0 0.427,0.01 0.364,0.01ZM0.364,-0.16C0.392,-0.16 0.415,-0.169 0.433,-0.186C0.451,-0.203 0.46,-0.23 0.461,-0.267C0.462,-0.296 0.463,-0.324 0.463,-0.35C0.463,-0.378 0.462,-0.405 0.461,-0.433C0.46,-0.458 0.456,-0.478 0.448,-0.494C0.439,-0.51 0.428,-0.522 0.413,-0.529C0.399,-0.536 0.383,-0.54 0.364,-0.54C0.345,-0.54 0.329,-0.536 0.314,-0.529C0.299,-0.522 0.288,-0.51 0.28,-0.494C0.271,-0.478 0.267,-0.458 0.266,-0.433C0.265,-0.405 0.265,-0.378 0.265,-0.35C0.265,-0.324 0.265,-0.296 0.266,-0.267C0.267,-0.23 0.277,-0.203 0.295,-0.186C0.312,-0.169 0.335,-0.16 0.364,-0.16Z" style="fill:#fff;fill-rule:nonzero;"/>
                                </g>
                                <g transform="matrix(64,0,0,64,1186.32,434.454)">
                                    <path d="M0.088,-0C0.081,-0 0.075,-0.003 0.07,-0.008C0.065,-0.013 0.062,-0.019 0.062,-0.026L0.062,-0.674C0.062,-0.681 0.065,-0.688 0.07,-0.693C0.075,-0.698 0.081,-0.7 0.088,-0.7L0.221,-0.7C0.233,-0.7 0.242,-0.697 0.247,-0.692C0.252,-0.687 0.256,-0.682 0.258,-0.679L0.464,-0.348L0.464,-0.674C0.464,-0.681 0.467,-0.688 0.472,-0.693C0.477,-0.698 0.484,-0.7 0.491,-0.7L0.641,-0.7C0.648,-0.7 0.655,-0.698 0.66,-0.693C0.665,-0.688 0.667,-0.681 0.667,-0.674L0.667,-0.026C0.667,-0.019 0.665,-0.013 0.66,-0.008C0.655,-0.003 0.648,-0 0.641,-0L0.509,-0C0.497,-0 0.488,-0.003 0.483,-0.009C0.477,-0.014 0.473,-0.018 0.471,-0.021L0.265,-0.334L0.265,-0.026C0.265,-0.019 0.263,-0.013 0.258,-0.008C0.253,-0.003 0.246,-0 0.239,-0L0.088,-0Z" style="fill:#fff;fill-rule:nonzero;"/>
                                </g>
                            </g>
                        </g>
                        <g>
                            <g transform="matrix(0.912458,0,-0.297891,1,213.109,-14)">
                                <path d="M1097,568.405C1097,563.351 1094.15,557.882 1089.32,553.654C1084.48,549.426 1078.23,546.936 1072.45,546.936L813.646,546.936C805.55,546.936 800,551.789 800,558.869C800,565.458 800,573.843 800,581.531C800,586.585 802.848,592.053 807.683,596.281C812.518,600.509 818.771,603 824.551,603L1083.35,603C1091.45,603 1097,598.147 1097,591.067C1097,584.477 1097,576.092 1097,568.405Z" style="fill:#e54344;stroke:#fff;stroke-width:5px;"/>
                            </g>
                            <g transform="matrix(0.581727,0,0,0.554026,305.761,332.679)">
                                <g transform="matrix(64,0,0,64,836.469,434.454)">
                                    <path d="M0.364,0.01C0.301,0.01 0.245,0 0.198,-0.02C0.151,-0.039 0.114,-0.069 0.086,-0.109C0.059,-0.149 0.045,-0.2 0.042,-0.261C0.041,-0.288 0.041,-0.318 0.041,-0.349C0.041,-0.38 0.041,-0.41 0.042,-0.439C0.045,-0.499 0.06,-0.549 0.087,-0.59C0.115,-0.63 0.153,-0.66 0.201,-0.68C0.248,-0.7 0.303,-0.71 0.364,-0.71C0.408,-0.71 0.449,-0.705 0.488,-0.695C0.526,-0.684 0.56,-0.669 0.59,-0.648C0.62,-0.626 0.644,-0.601 0.661,-0.57C0.678,-0.539 0.687,-0.503 0.688,-0.462C0.688,-0.456 0.686,-0.451 0.682,-0.447C0.677,-0.442 0.672,-0.44 0.666,-0.44L0.497,-0.44C0.487,-0.44 0.48,-0.442 0.475,-0.446C0.47,-0.45 0.466,-0.457 0.463,-0.467C0.454,-0.496 0.442,-0.515 0.425,-0.525C0.408,-0.535 0.388,-0.54 0.364,-0.54C0.335,-0.54 0.311,-0.532 0.294,-0.517C0.277,-0.501 0.267,-0.473 0.266,-0.434C0.264,-0.379 0.264,-0.323 0.266,-0.266C0.267,-0.227 0.277,-0.199 0.294,-0.184C0.311,-0.168 0.335,-0.16 0.364,-0.16C0.388,-0.16 0.408,-0.165 0.426,-0.176C0.443,-0.187 0.455,-0.206 0.463,-0.233C0.466,-0.244 0.469,-0.251 0.474,-0.255C0.48,-0.258 0.487,-0.26 0.497,-0.26L0.666,-0.26C0.672,-0.26 0.677,-0.258 0.682,-0.254C0.686,-0.25 0.688,-0.245 0.688,-0.239C0.687,-0.198 0.678,-0.162 0.661,-0.131C0.644,-0.1 0.62,-0.074 0.59,-0.053C0.56,-0.032 0.526,-0.016 0.488,-0.006C0.449,0.005 0.408,0.01 0.364,0.01Z" style="fill:#fff;fill-rule:nonzero;"/>
                                </g>
                                <g transform="matrix(64,0,0,64,882.421,434.454)">
                                    <path d="M0.364,0.01C0.3,0.01 0.245,-0 0.198,-0.02C0.151,-0.04 0.114,-0.07 0.086,-0.111C0.059,-0.151 0.045,-0.201 0.043,-0.261C0.042,-0.289 0.042,-0.318 0.042,-0.347C0.042,-0.377 0.042,-0.407 0.043,-0.436C0.045,-0.495 0.059,-0.545 0.086,-0.586C0.114,-0.627 0.151,-0.658 0.198,-0.679C0.245,-0.7 0.301,-0.71 0.364,-0.71C0.427,-0.71 0.482,-0.7 0.529,-0.679C0.576,-0.658 0.614,-0.627 0.641,-0.586C0.668,-0.545 0.683,-0.495 0.684,-0.436C0.685,-0.407 0.686,-0.377 0.686,-0.347C0.686,-0.318 0.685,-0.289 0.684,-0.261C0.682,-0.201 0.668,-0.151 0.641,-0.111C0.614,-0.07 0.577,-0.04 0.53,-0.02C0.483,-0 0.427,0.01 0.364,0.01ZM0.364,-0.16C0.392,-0.16 0.415,-0.169 0.433,-0.186C0.451,-0.203 0.46,-0.23 0.461,-0.267C0.462,-0.296 0.463,-0.324 0.463,-0.35C0.463,-0.378 0.462,-0.405 0.461,-0.433C0.46,-0.458 0.456,-0.478 0.448,-0.494C0.439,-0.51 0.428,-0.522 0.413,-0.529C0.399,-0.536 0.383,-0.54 0.364,-0.54C0.345,-0.54 0.329,-0.536 0.314,-0.529C0.299,-0.522 0.288,-0.51 0.28,-0.494C0.271,-0.478 0.267,-0.458 0.266,-0.433C0.265,-0.405 0.265,-0.378 0.265,-0.35C0.265,-0.324 0.265,-0.296 0.266,-0.267C0.267,-0.23 0.277,-0.203 0.295,-0.186C0.312,-0.169 0.335,-0.16 0.364,-0.16Z" style="fill:#fff;fill-rule:nonzero;"/>
                                </g>
                                <g transform="matrix(64,0,0,64,928.949,434.454)">
                                    <path d="M0.089,-0C0.082,-0 0.075,-0.003 0.07,-0.008C0.065,-0.013 0.062,-0.019 0.062,-0.026L0.062,-0.674C0.062,-0.681 0.065,-0.688 0.07,-0.693C0.075,-0.698 0.082,-0.7 0.089,-0.7L0.222,-0.7C0.234,-0.7 0.243,-0.697 0.249,-0.69C0.255,-0.683 0.259,-0.679 0.261,-0.676L0.421,-0.398L0.581,-0.676C0.583,-0.679 0.587,-0.683 0.593,-0.69C0.599,-0.697 0.608,-0.7 0.62,-0.7L0.753,-0.7C0.76,-0.7 0.767,-0.698 0.772,-0.693C0.777,-0.688 0.779,-0.681 0.779,-0.674L0.779,-0.026C0.779,-0.019 0.777,-0.013 0.772,-0.008C0.767,-0.003 0.76,-0 0.753,-0L0.603,-0C0.596,-0 0.59,-0.003 0.585,-0.008C0.58,-0.013 0.577,-0.019 0.577,-0.026L0.577,-0.35L0.487,-0.192C0.484,-0.187 0.479,-0.181 0.474,-0.176C0.469,-0.171 0.461,-0.168 0.451,-0.168L0.39,-0.168C0.381,-0.168 0.373,-0.171 0.368,-0.176C0.363,-0.181 0.358,-0.187 0.355,-0.192L0.265,-0.35L0.265,-0.026C0.265,-0.019 0.263,-0.013 0.258,-0.008C0.253,-0.003 0.246,-0 0.239,-0L0.089,-0Z" style="fill:#fff;fill-rule:nonzero;"/>
                                </g>
                                <g transform="matrix(64,0,0,64,982.837,434.454)">
                                    <path d="M0.088,-0C0.081,-0 0.075,-0.003 0.07,-0.008C0.065,-0.013 0.062,-0.019 0.062,-0.026L0.062,-0.674C0.062,-0.681 0.065,-0.688 0.07,-0.693C0.075,-0.698 0.081,-0.7 0.088,-0.7L0.38,-0.7C0.438,-0.7 0.489,-0.691 0.532,-0.674C0.575,-0.657 0.608,-0.63 0.632,-0.595C0.656,-0.56 0.668,-0.515 0.668,-0.462C0.668,-0.409 0.656,-0.365 0.632,-0.331C0.608,-0.296 0.575,-0.271 0.532,-0.255C0.489,-0.239 0.438,-0.231 0.38,-0.231L0.285,-0.231L0.285,-0.026C0.285,-0.019 0.282,-0.013 0.278,-0.008C0.273,-0.003 0.266,-0 0.259,-0L0.088,-0ZM0.281,-0.392L0.375,-0.392C0.394,-0.392 0.411,-0.398 0.425,-0.409C0.438,-0.421 0.445,-0.439 0.445,-0.464C0.445,-0.483 0.44,-0.5 0.429,-0.516C0.418,-0.531 0.4,-0.538 0.375,-0.538L0.281,-0.538L0.281,-0.392Z" style="fill:#fff;fill-rule:nonzero;"/>
                                </g>
                                <g transform="matrix(64,0,0,64,1023.89,434.454)">
                                    <path d="M0.026,-0C0.02,-0 0.015,-0.002 0.011,-0.007C0.007,-0.011 0.005,-0.016 0.005,-0.022C0.005,-0.025 0.005,-0.027 0.006,-0.029L0.234,-0.669C0.237,-0.676 0.241,-0.683 0.248,-0.69C0.255,-0.697 0.264,-0.7 0.276,-0.7L0.459,-0.7C0.472,-0.7 0.481,-0.697 0.488,-0.69C0.495,-0.683 0.499,-0.676 0.501,-0.669L0.73,-0.029C0.731,-0.027 0.731,-0.025 0.731,-0.022C0.731,-0.016 0.729,-0.011 0.725,-0.007C0.72,-0.002 0.715,-0 0.709,-0L0.555,-0C0.544,-0 0.535,-0.003 0.53,-0.008C0.525,-0.013 0.521,-0.018 0.519,-0.023L0.488,-0.107L0.247,-0.107L0.216,-0.023C0.214,-0.018 0.211,-0.013 0.205,-0.008C0.201,-0.003 0.192,-0 0.18,-0L0.026,-0ZM0.293,-0.276L0.442,-0.276L0.367,-0.501L0.293,-0.276Z" style="fill:#fff;fill-rule:nonzero;"/>
                                </g>
                                <g transform="matrix(64,0,0,64,1070.93,434.454)">
                                    <path d="M0.088,-0C0.081,-0 0.075,-0.003 0.07,-0.008C0.065,-0.013 0.062,-0.019 0.062,-0.026L0.062,-0.674C0.062,-0.681 0.065,-0.688 0.07,-0.693C0.075,-0.698 0.081,-0.7 0.088,-0.7L0.221,-0.7C0.233,-0.7 0.242,-0.697 0.247,-0.692C0.252,-0.687 0.256,-0.682 0.258,-0.679L0.464,-0.348L0.464,-0.674C0.464,-0.681 0.467,-0.688 0.472,-0.693C0.477,-0.698 0.484,-0.7 0.491,-0.7L0.641,-0.7C0.648,-0.7 0.655,-0.698 0.66,-0.693C0.665,-0.688 0.667,-0.681 0.667,-0.674L0.667,-0.026C0.667,-0.019 0.665,-0.013 0.66,-0.008C0.655,-0.003 0.648,-0 0.641,-0L0.509,-0C0.497,-0 0.488,-0.003 0.483,-0.009C0.477,-0.014 0.473,-0.018 0.471,-0.021L0.265,-0.334L0.265,-0.026C0.265,-0.019 0.263,-0.013 0.258,-0.008C0.253,-0.003 0.246,-0 0.239,-0L0.088,-0Z" style="fill:#fff;fill-rule:nonzero;"/>
                                </g>
                                <g transform="matrix(64,0,0,64,1117.65,434.454)">
                                    <path d="M0.088,-0C0.081,-0 0.075,-0.003 0.07,-0.008C0.065,-0.013 0.062,-0.019 0.062,-0.026L0.062,-0.674C0.062,-0.681 0.065,-0.688 0.07,-0.693C0.075,-0.698 0.081,-0.7 0.088,-0.7L0.258,-0.7C0.265,-0.7 0.272,-0.698 0.277,-0.693C0.281,-0.688 0.284,-0.681 0.284,-0.674L0.284,-0.026C0.284,-0.019 0.281,-0.013 0.277,-0.008C0.272,-0.003 0.265,-0 0.258,-0L0.088,-0Z" style="fill:#fff;fill-rule:nonzero;"/>
                                </g>
                                <g transform="matrix(64,0,0,64,1139.8,434.454)">
                                    <path d="M0.364,0.01C0.3,0.01 0.245,-0 0.198,-0.02C0.151,-0.04 0.114,-0.07 0.086,-0.111C0.059,-0.151 0.045,-0.201 0.043,-0.261C0.042,-0.289 0.042,-0.318 0.042,-0.347C0.042,-0.377 0.042,-0.407 0.043,-0.436C0.045,-0.495 0.059,-0.545 0.086,-0.586C0.114,-0.627 0.151,-0.658 0.198,-0.679C0.245,-0.7 0.301,-0.71 0.364,-0.71C0.427,-0.71 0.482,-0.7 0.529,-0.679C0.576,-0.658 0.614,-0.627 0.641,-0.586C0.668,-0.545 0.683,-0.495 0.684,-0.436C0.685,-0.407 0.686,-0.377 0.686,-0.347C0.686,-0.318 0.685,-0.289 0.684,-0.261C0.682,-0.201 0.668,-0.151 0.641,-0.111C0.614,-0.07 0.577,-0.04 0.53,-0.02C0.483,-0 0.427,0.01 0.364,0.01ZM0.364,-0.16C0.392,-0.16 0.415,-0.169 0.433,-0.186C0.451,-0.203 0.46,-0.23 0.461,-0.267C0.462,-0.296 0.463,-0.324 0.463,-0.35C0.463,-0.378 0.462,-0.405 0.461,-0.433C0.46,-0.458 0.456,-0.478 0.448,-0.494C0.439,-0.51 0.428,-0.522 0.413,-0.529C0.399,-0.536 0.383,-0.54 0.364,-0.54C0.345,-0.54 0.329,-0.536 0.314,-0.529C0.299,-0.522 0.288,-0.51 0.28,-0.494C0.271,-0.478 0.267,-0.458 0.266,-0.433C0.265,-0.405 0.265,-0.378 0.265,-0.35C0.265,-0.324 0.265,-0.296 0.266,-0.267C0.267,-0.23 0.277,-0.203 0.295,-0.186C0.312,-0.169 0.335,-0.16 0.364,-0.16Z" style="fill:#fff;fill-rule:nonzero;"/>
                                </g>
                                <g transform="matrix(64,0,0,64,1186.32,434.454)">
                                    <path d="M0.088,-0C0.081,-0 0.075,-0.003 0.07,-0.008C0.065,-0.013 0.062,-0.019 0.062,-0.026L0.062,-0.674C0.062,-0.681 0.065,-0.688 0.07,-0.693C0.075,-0.698 0.081,-0.7 0.088,-0.7L0.221,-0.7C0.233,-0.7 0.242,-0.697 0.247,-0.692C0.252,-0.687 0.256,-0.682 0.258,-0.679L0.464,-0.348L0.464,-0.674C0.464,-0.681 0.467,-0.688 0.472,-0.693C0.477,-0.698 0.484,-0.7 0.491,-0.7L0.641,-0.7C0.648,-0.7 0.655,-0.698 0.66,-0.693C0.665,-0.688 0.667,-0.681 0.667,-0.674L0.667,-0.026C0.667,-0.019 0.665,-0.013 0.66,-0.008C0.655,-0.003 0.648,-0 0.641,-0L0.509,-0C0.497,-0 0.488,-0.003 0.483,-0.009C0.477,-0.014 0.473,-0.018 0.471,-0.021L0.265,-0.334L0.265,-0.026C0.265,-0.019 0.263,-0.013 0.258,-0.008C0.253,-0.003 0.246,-0 0.239,-0L0.088,-0Z" style="fill:#fff;fill-rule:nonzero;"/>
                                </g>
                            </g>
                        </g>
                    </g>
                    <g id="bingo-letters" serif:id="bingo letters" filter="url(#dropshadow2)" transform="matrix(0.785054,0,1.46487e-32,0.785054,20.6203,290.707)">
                        <g>
                            <g transform="matrix(1.75212,0,-3.26937e-32,1.75212,-581.517,-1045.33)">
                                <circle cx="924" cy="717" r="51" style="fill:#fff;stroke:#fff;stroke-width:1px;"/>
                            </g>
                            <g transform="matrix(1.75212,0,-3.26937e-32,1.75212,-478.576,-1024.99)">
                                <circle cx="924" cy="717" r="51" style="fill:#fff;stroke:#fff;stroke-width:1px;"/>
                            </g>
                            <g transform="matrix(1.75212,0,-3.26937e-32,1.75212,-375.634,-1045.33)">
                                <circle cx="924" cy="717" r="51" style="fill:#fff;stroke:#fff;stroke-width:1px;"/>
                            </g>
                            <g transform="matrix(1.75212,0,-3.26937e-32,1.75212,-272.692,-1024.99)">
                                <circle cx="924" cy="717" r="51" style="fill:#fff;stroke:#fff;stroke-width:1px;"/>
                            </g>
                            <g transform="matrix(1.75212,0,-3.26937e-32,1.75212,-169.751,-1044.36)">
                                <circle cx="924" cy="717" r="51" style="fill:#fff;stroke:#fff;stroke-width:1px;"/>
                            </g>
                            <g id="bingo-letter" serif:id="bingo letter" transform="matrix(0.90829,0,-5.93949e-17,0.90829,683.972,34.2745)">
                                <circle cx="842.5" cy="194.5" r="72.5" style="fill:#fff;"/>
                                <clipPath id="_clip1">
                                    <circle cx="842.5" cy="194.5" r="72.5"/>
                                </clipPath>
                                <g clip-path="url(#_clip1)">
                                    <g transform="matrix(1,0,0,1,-37.8907,36.8592)">
                                        <g transform="matrix(106.668,0,0,106.668,842.843,196.041)">
                                            <path d="M0.352,0.01C0.291,0.01 0.239,-0 0.195,-0.02C0.151,-0.04 0.117,-0.07 0.092,-0.111C0.067,-0.151 0.054,-0.202 0.052,-0.263C0.051,-0.292 0.051,-0.32 0.051,-0.348C0.051,-0.377 0.051,-0.406 0.052,-0.435C0.054,-0.495 0.068,-0.546 0.093,-0.587C0.117,-0.627 0.152,-0.658 0.197,-0.679C0.241,-0.7 0.293,-0.71 0.352,-0.71C0.411,-0.71 0.462,-0.7 0.506,-0.679C0.551,-0.658 0.586,-0.627 0.611,-0.587C0.636,-0.546 0.65,-0.495 0.651,-0.435C0.652,-0.406 0.653,-0.377 0.653,-0.348C0.653,-0.32 0.652,-0.292 0.651,-0.263C0.649,-0.202 0.636,-0.151 0.611,-0.111C0.586,-0.07 0.552,-0.04 0.508,-0.02C0.464,-0 0.412,0.01 0.352,0.01ZM0.352,-0.119C0.391,-0.119 0.423,-0.131 0.448,-0.155C0.472,-0.178 0.486,-0.216 0.487,-0.268C0.488,-0.297 0.489,-0.325 0.489,-0.35C0.489,-0.376 0.488,-0.403 0.487,-0.432C0.486,-0.467 0.48,-0.495 0.468,-0.517C0.456,-0.539 0.44,-0.555 0.421,-0.566C0.401,-0.576 0.378,-0.581 0.352,-0.581C0.326,-0.581 0.303,-0.576 0.283,-0.566C0.263,-0.555 0.247,-0.539 0.235,-0.517C0.224,-0.495 0.217,-0.467 0.216,-0.432C0.215,-0.403 0.215,-0.376 0.215,-0.35C0.215,-0.325 0.215,-0.297 0.216,-0.268C0.218,-0.216 0.231,-0.178 0.256,-0.155C0.281,-0.131 0.313,-0.119 0.352,-0.119Z" style="fill:#252121;fill-rule:nonzero;"/>
                                        </g>
                                    </g>
                                </g>
                                <circle cx="842.5" cy="194.5" r="72.5" style="fill:none;stroke:#aa5e2a;stroke-width:32.63px;"/>
                            </g>
                            <g id="bingo-letter1" serif:id="bingo letter" transform="matrix(0.90829,0,-5.93949e-17,0.90829,683.972,34.2745)">
                                <circle cx="842.5" cy="194.5" r="72.5" style="fill:#fff;"/>
                                <clipPath id="_clip2">
                                    <circle cx="842.5" cy="194.5" r="72.5"/>
                                </clipPath>
                                <g clip-path="url(#_clip2)">
                                    <g transform="matrix(1,0,0,1,-37.8907,36.8592)">
                                        <g transform="matrix(106.668,0,0,106.668,842.843,196.041)">
                                            <path d="M0.352,0.01C0.291,0.01 0.239,-0 0.195,-0.02C0.151,-0.04 0.117,-0.07 0.092,-0.111C0.067,-0.151 0.054,-0.202 0.052,-0.263C0.051,-0.292 0.051,-0.32 0.051,-0.348C0.051,-0.377 0.051,-0.406 0.052,-0.435C0.054,-0.495 0.068,-0.546 0.093,-0.587C0.117,-0.627 0.152,-0.658 0.197,-0.679C0.241,-0.7 0.293,-0.71 0.352,-0.71C0.411,-0.71 0.462,-0.7 0.506,-0.679C0.551,-0.658 0.586,-0.627 0.611,-0.587C0.636,-0.546 0.65,-0.495 0.651,-0.435C0.652,-0.406 0.653,-0.377 0.653,-0.348C0.653,-0.32 0.652,-0.292 0.651,-0.263C0.649,-0.202 0.636,-0.151 0.611,-0.111C0.586,-0.07 0.552,-0.04 0.508,-0.02C0.464,-0 0.412,0.01 0.352,0.01ZM0.352,-0.119C0.391,-0.119 0.423,-0.131 0.448,-0.155C0.472,-0.178 0.486,-0.216 0.487,-0.268C0.488,-0.297 0.489,-0.325 0.489,-0.35C0.489,-0.376 0.488,-0.403 0.487,-0.432C0.486,-0.467 0.48,-0.495 0.468,-0.517C0.456,-0.539 0.44,-0.555 0.421,-0.566C0.401,-0.576 0.378,-0.581 0.352,-0.581C0.326,-0.581 0.303,-0.576 0.283,-0.566C0.263,-0.555 0.247,-0.539 0.235,-0.517C0.224,-0.495 0.217,-0.467 0.216,-0.432C0.215,-0.403 0.215,-0.376 0.215,-0.35C0.215,-0.325 0.215,-0.297 0.216,-0.268C0.218,-0.216 0.231,-0.178 0.256,-0.155C0.281,-0.131 0.313,-0.119 0.352,-0.119Z" style="fill:#252121;fill-rule:nonzero;"/>
                                        </g>
                                    </g>
                                </g>
                                <circle cx="842.5" cy="194.5" r="72.5" style="fill:none;stroke:#aa5e2a;stroke-width:32.63px;"/>
                            </g>
                            <g id="bingo-letter2" serif:id="bingo letter" transform="matrix(0.90829,0,-5.93949e-17,0.90829,581.03,54.6202)">
                                <circle cx="842.5" cy="194.5" r="72.5" style="fill:#fff;"/>
                                <clipPath id="_clip3">
                                    <circle cx="842.5" cy="194.5" r="72.5"/>
                                </clipPath>
                                <g clip-path="url(#_clip3)">
                                    <g transform="matrix(1,0,0,1,-38.3707,35.7926)">
                                        <g transform="matrix(106.668,0,0,106.668,842.843,196.041)">
                                            <path d="M0.355,0.01C0.292,0.01 0.239,-0.001 0.195,-0.021C0.15,-0.043 0.116,-0.073 0.092,-0.114C0.067,-0.154 0.054,-0.203 0.052,-0.26C0.051,-0.289 0.051,-0.319 0.051,-0.352C0.051,-0.385 0.051,-0.416 0.052,-0.445C0.054,-0.501 0.067,-0.549 0.092,-0.588C0.116,-0.627 0.151,-0.658 0.196,-0.679C0.241,-0.7 0.294,-0.71 0.355,-0.71C0.404,-0.71 0.448,-0.704 0.485,-0.691C0.522,-0.678 0.554,-0.662 0.579,-0.642C0.604,-0.621 0.624,-0.599 0.637,-0.575C0.65,-0.551 0.657,-0.528 0.658,-0.506C0.658,-0.5 0.656,-0.495 0.652,-0.491C0.648,-0.486 0.643,-0.484 0.636,-0.484L0.512,-0.484C0.505,-0.484 0.5,-0.485 0.497,-0.488C0.493,-0.491 0.49,-0.495 0.487,-0.5C0.482,-0.512 0.475,-0.524 0.465,-0.537C0.454,-0.549 0.44,-0.559 0.423,-0.568C0.406,-0.577 0.383,-0.581 0.355,-0.581C0.313,-0.581 0.28,-0.57 0.256,-0.548C0.231,-0.526 0.218,-0.49 0.216,-0.44C0.214,-0.383 0.214,-0.324 0.216,-0.265C0.218,-0.213 0.232,-0.176 0.257,-0.153C0.281,-0.13 0.315,-0.119 0.357,-0.119C0.384,-0.119 0.409,-0.124 0.431,-0.134C0.452,-0.143 0.469,-0.158 0.482,-0.179C0.495,-0.2 0.501,-0.226 0.501,-0.258L0.501,-0.283L0.392,-0.283C0.385,-0.283 0.38,-0.285 0.375,-0.291C0.37,-0.296 0.368,-0.301 0.368,-0.308L0.368,-0.372C0.368,-0.379 0.37,-0.385 0.375,-0.39C0.38,-0.395 0.385,-0.397 0.392,-0.397L0.637,-0.397C0.644,-0.397 0.65,-0.395 0.655,-0.39C0.66,-0.385 0.662,-0.379 0.662,-0.372L0.662,-0.263C0.662,-0.206 0.65,-0.157 0.625,-0.116C0.6,-0.075 0.564,-0.044 0.518,-0.023C0.471,-0.001 0.417,0.01 0.355,0.01Z" style="fill:#252121;fill-rule:nonzero;"/>
                                        </g>
                                    </g>
                                </g>
                                <circle cx="842.5" cy="194.5" r="72.5" style="fill:none;stroke:#8ba949;stroke-width:32.63px;"/>
                            </g>
                            <g id="bingo-letter3" serif:id="bingo letter" transform="matrix(0.90829,0,-5.93949e-17,0.90829,581.03,54.6202)">
                                <circle cx="842.5" cy="194.5" r="72.5" style="fill:#fff;"/>
                                <clipPath id="_clip4">
                                    <circle cx="842.5" cy="194.5" r="72.5"/>
                                </clipPath>
                                <g clip-path="url(#_clip4)">
                                    <g transform="matrix(1,0,0,1,-38.3707,35.7926)">
                                        <g transform="matrix(106.668,0,0,106.668,842.843,196.041)">
                                            <path d="M0.355,0.01C0.292,0.01 0.239,-0.001 0.195,-0.021C0.15,-0.043 0.116,-0.073 0.092,-0.114C0.067,-0.154 0.054,-0.203 0.052,-0.26C0.051,-0.289 0.051,-0.319 0.051,-0.352C0.051,-0.385 0.051,-0.416 0.052,-0.445C0.054,-0.501 0.067,-0.549 0.092,-0.588C0.116,-0.627 0.151,-0.658 0.196,-0.679C0.241,-0.7 0.294,-0.71 0.355,-0.71C0.404,-0.71 0.448,-0.704 0.485,-0.691C0.522,-0.678 0.554,-0.662 0.579,-0.642C0.604,-0.621 0.624,-0.599 0.637,-0.575C0.65,-0.551 0.657,-0.528 0.658,-0.506C0.658,-0.5 0.656,-0.495 0.652,-0.491C0.648,-0.486 0.643,-0.484 0.636,-0.484L0.512,-0.484C0.505,-0.484 0.5,-0.485 0.497,-0.488C0.493,-0.491 0.49,-0.495 0.487,-0.5C0.482,-0.512 0.475,-0.524 0.465,-0.537C0.454,-0.549 0.44,-0.559 0.423,-0.568C0.406,-0.577 0.383,-0.581 0.355,-0.581C0.313,-0.581 0.28,-0.57 0.256,-0.548C0.231,-0.526 0.218,-0.49 0.216,-0.44C0.214,-0.383 0.214,-0.324 0.216,-0.265C0.218,-0.213 0.232,-0.176 0.257,-0.153C0.281,-0.13 0.315,-0.119 0.357,-0.119C0.384,-0.119 0.409,-0.124 0.431,-0.134C0.452,-0.143 0.469,-0.158 0.482,-0.179C0.495,-0.2 0.501,-0.226 0.501,-0.258L0.501,-0.283L0.392,-0.283C0.385,-0.283 0.38,-0.285 0.375,-0.291C0.37,-0.296 0.368,-0.301 0.368,-0.308L0.368,-0.372C0.368,-0.379 0.37,-0.385 0.375,-0.39C0.38,-0.395 0.385,-0.397 0.392,-0.397L0.637,-0.397C0.644,-0.397 0.65,-0.395 0.655,-0.39C0.66,-0.385 0.662,-0.379 0.662,-0.372L0.662,-0.263C0.662,-0.206 0.65,-0.157 0.625,-0.116C0.6,-0.075 0.564,-0.044 0.518,-0.023C0.471,-0.001 0.417,0.01 0.355,0.01Z" style="fill:#252121;fill-rule:nonzero;"/>
                                        </g>
                                    </g>
                                </g>
                                <circle cx="842.5" cy="194.5" r="72.5" style="fill:none;stroke:#8ba949;stroke-width:32.63px;"/>
                            </g>
                            <g id="bingo-letter4" serif:id="bingo letter" transform="matrix(0.90829,0,-5.93949e-17,0.90829,478.088,34.2745)">
                                <circle cx="842.5" cy="194.5" r="72.5" style="fill:#fff;"/>
                                <clipPath id="_clip5">
                                    <circle cx="842.5" cy="194.5" r="72.5"/>
                                </clipPath>
                                <g clip-path="url(#_clip5)">
                                    <g transform="matrix(1,0,0,1,-38.3707,35.7926)">
                                        <g transform="matrix(106.668,0,0,106.668,842.843,196.041)">
                                            <path d="M0.099,-0C0.092,-0 0.086,-0.002 0.081,-0.007C0.076,-0.012 0.074,-0.018 0.074,-0.025L0.074,-0.675C0.074,-0.682 0.076,-0.688 0.081,-0.693C0.086,-0.698 0.092,-0.7 0.099,-0.7L0.19,-0.7C0.2,-0.7 0.207,-0.698 0.212,-0.693C0.217,-0.688 0.22,-0.685 0.221,-0.682L0.488,-0.265L0.488,-0.675C0.488,-0.682 0.49,-0.688 0.495,-0.693C0.5,-0.698 0.505,-0.7 0.512,-0.7L0.614,-0.7C0.621,-0.7 0.627,-0.698 0.632,-0.693C0.637,-0.688 0.639,-0.682 0.639,-0.675L0.639,-0.025C0.639,-0.018 0.637,-0.013 0.632,-0.008C0.627,-0.003 0.621,-0 0.614,-0L0.522,-0C0.512,-0 0.505,-0.003 0.5,-0.008C0.496,-0.013 0.493,-0.016 0.491,-0.018L0.225,-0.422L0.225,-0.025C0.225,-0.018 0.223,-0.012 0.218,-0.007C0.213,-0.002 0.207,-0 0.2,-0L0.099,-0Z" style="fill:#252121;fill-rule:nonzero;"/>
                                        </g>
                                    </g>
                                </g>
                                <circle cx="842.5" cy="194.5" r="72.5" style="fill:none;stroke:#9399c9;stroke-width:32.63px;"/>
                            </g>
                            <g id="bingo-letter5" serif:id="bingo letter" transform="matrix(0.90829,0,-5.93949e-17,0.90829,478.088,34.2745)">
                                <circle cx="842.5" cy="194.5" r="72.5" style="fill:#fff;"/>
                                <clipPath id="_clip6">
                                    <circle cx="842.5" cy="194.5" r="72.5"/>
                                </clipPath>
                                <g clip-path="url(#_clip6)">
                                    <g transform="matrix(1,0,0,1,-38.3707,35.7926)">
                                        <g transform="matrix(106.668,0,0,106.668,842.843,196.041)">
                                            <path d="M0.099,-0C0.092,-0 0.086,-0.002 0.081,-0.007C0.076,-0.012 0.074,-0.018 0.074,-0.025L0.074,-0.675C0.074,-0.682 0.076,-0.688 0.081,-0.693C0.086,-0.698 0.092,-0.7 0.099,-0.7L0.19,-0.7C0.2,-0.7 0.207,-0.698 0.212,-0.693C0.217,-0.688 0.22,-0.685 0.221,-0.682L0.488,-0.265L0.488,-0.675C0.488,-0.682 0.49,-0.688 0.495,-0.693C0.5,-0.698 0.505,-0.7 0.512,-0.7L0.614,-0.7C0.621,-0.7 0.627,-0.698 0.632,-0.693C0.637,-0.688 0.639,-0.682 0.639,-0.675L0.639,-0.025C0.639,-0.018 0.637,-0.013 0.632,-0.008C0.627,-0.003 0.621,-0 0.614,-0L0.522,-0C0.512,-0 0.505,-0.003 0.5,-0.008C0.496,-0.013 0.493,-0.016 0.491,-0.018L0.225,-0.422L0.225,-0.025C0.225,-0.018 0.223,-0.012 0.218,-0.007C0.213,-0.002 0.207,-0 0.2,-0L0.099,-0Z" style="fill:#252121;fill-rule:nonzero;"/>
                                        </g>
                                    </g>
                                </g>
                                <circle cx="842.5" cy="194.5" r="72.5" style="fill:none;stroke:#9399c9;stroke-width:32.63px;"/>
                            </g>
                            <g id="bingo-letter6" serif:id="bingo letter" transform="matrix(0.90829,0,-5.93949e-17,0.90829,375.147,54.6202)">
                                <circle cx="842.5" cy="194.5" r="72.5" style="fill:#fff;"/>
                                <clipPath id="_clip7">
                                    <circle cx="842.5" cy="194.5" r="72.5"/>
                                </clipPath>
                                <g clip-path="url(#_clip7)">
                                    <g transform="matrix(1,0,0,1,-10.2954,35.7926)">
                                        <g transform="matrix(106.668,0,0,106.668,836.209,196.041)">
                                            <path d="M0.099,-0C0.092,-0 0.086,-0.002 0.081,-0.007C0.076,-0.012 0.074,-0.018 0.074,-0.025L0.074,-0.675C0.074,-0.682 0.076,-0.688 0.081,-0.693C0.086,-0.698 0.092,-0.7 0.099,-0.7L0.212,-0.7C0.219,-0.7 0.225,-0.698 0.23,-0.693C0.235,-0.688 0.237,-0.682 0.237,-0.675L0.237,-0.025C0.237,-0.018 0.235,-0.012 0.23,-0.007C0.225,-0.002 0.219,-0 0.212,-0L0.099,-0Z" style="fill:#252121;fill-rule:nonzero;"/>
                                        </g>
                                    </g>
                                </g>
                                <circle cx="842.5" cy="194.5" r="72.5" style="fill:none;stroke:#977ab2;stroke-width:32.63px;"/>
                            </g>
                            <g id="bingo-letter7" serif:id="bingo letter" transform="matrix(0.90829,0,-5.93949e-17,0.90829,375.147,54.6202)">
                                <circle cx="842.5" cy="194.5" r="72.5" style="fill:#fff;"/>
                                <clipPath id="_clip8">
                                    <circle cx="842.5" cy="194.5" r="72.5"/>
                                </clipPath>
                                <g clip-path="url(#_clip8)">
                                    <g transform="matrix(1,0,0,1,-10.2954,35.7926)">
                                        <g transform="matrix(106.668,0,0,106.668,836.209,196.041)">
                                            <path d="M0.099,-0C0.092,-0 0.086,-0.002 0.081,-0.007C0.076,-0.012 0.074,-0.018 0.074,-0.025L0.074,-0.675C0.074,-0.682 0.076,-0.688 0.081,-0.693C0.086,-0.698 0.092,-0.7 0.099,-0.7L0.212,-0.7C0.219,-0.7 0.225,-0.698 0.23,-0.693C0.235,-0.688 0.237,-0.682 0.237,-0.675L0.237,-0.025C0.237,-0.018 0.235,-0.012 0.23,-0.007C0.225,-0.002 0.219,-0 0.212,-0L0.099,-0Z" style="fill:#252121;fill-rule:nonzero;"/>
                                        </g>
                                    </g>
                                </g>
                                <circle cx="842.5" cy="194.5" r="72.5" style="fill:none;stroke:#977ab2;stroke-width:32.63px;"/>
                            </g>
                            <g id="bingo-letter8" serif:id="bingo letter" transform="matrix(0.90829,0,-5.93949e-17,0.90829,272.205,34.2745)">
                                <circle cx="842.5" cy="194.5" r="72.5" style="fill:#fff;"/>
                                <clipPath id="_clip9">
                                    <circle cx="842.5" cy="194.5" r="72.5"/>
                                </clipPath>
                                <g clip-path="url(#_clip9)">
                                    <g transform="matrix(1,0,0,1,-38.9574,35.7926)">
                                        <g transform="matrix(106.668,0,0,106.668,842.843,196.041)">
                                            <path d="M0.099,-0C0.092,-0 0.086,-0.002 0.081,-0.007C0.076,-0.012 0.074,-0.018 0.074,-0.025L0.074,-0.675C0.074,-0.682 0.076,-0.688 0.081,-0.693C0.086,-0.698 0.092,-0.7 0.099,-0.7L0.396,-0.7C0.451,-0.7 0.497,-0.692 0.532,-0.676C0.567,-0.66 0.594,-0.637 0.611,-0.608C0.627,-0.579 0.636,-0.544 0.636,-0.505C0.636,-0.48 0.631,-0.459 0.623,-0.44C0.614,-0.421 0.603,-0.406 0.59,-0.394C0.577,-0.382 0.564,-0.373 0.552,-0.367C0.578,-0.355 0.601,-0.335 0.621,-0.308C0.64,-0.28 0.65,-0.247 0.65,-0.209C0.65,-0.167 0.641,-0.13 0.622,-0.099C0.603,-0.068 0.576,-0.043 0.539,-0.026C0.502,-0.009 0.458,-0 0.405,-0L0.099,-0ZM0.233,-0.117L0.386,-0.117C0.419,-0.117 0.443,-0.126 0.46,-0.145C0.477,-0.163 0.485,-0.185 0.485,-0.21C0.485,-0.236 0.476,-0.258 0.46,-0.276C0.443,-0.293 0.418,-0.302 0.386,-0.302L0.233,-0.302L0.233,-0.117ZM0.233,-0.417L0.377,-0.417C0.408,-0.417 0.432,-0.425 0.448,-0.441C0.463,-0.456 0.471,-0.476 0.471,-0.501C0.471,-0.526 0.463,-0.546 0.448,-0.561C0.432,-0.576 0.408,-0.583 0.377,-0.583L0.233,-0.583L0.233,-0.417Z" style="fill:#252121;fill-rule:nonzero;"/>
                                        </g>
                                    </g>
                                </g>
                                <circle cx="842.5" cy="194.5" r="72.5" style="fill:none;stroke:#0661eb;stroke-width:32.63px;"/>
                            </g>
                            <g id="bingo-letter9" serif:id="bingo letter" transform="matrix(0.90829,0,-5.93949e-17,0.90829,272.205,34.2745)">
                                <circle cx="842.5" cy="194.5" r="72.5" style="fill:#fff;"/>
                                <clipPath id="_clip10">
                                    <circle cx="842.5" cy="194.5" r="72.5"/>
                                </clipPath>
                                <g clip-path="url(#_clip10)">
                                    <g transform="matrix(1,0,0,1,-38.9574,35.7926)">
                                        <g transform="matrix(106.668,0,0,106.668,842.843,196.041)">
                                            <path d="M0.099,-0C0.092,-0 0.086,-0.002 0.081,-0.007C0.076,-0.012 0.074,-0.018 0.074,-0.025L0.074,-0.675C0.074,-0.682 0.076,-0.688 0.081,-0.693C0.086,-0.698 0.092,-0.7 0.099,-0.7L0.396,-0.7C0.451,-0.7 0.497,-0.692 0.532,-0.676C0.567,-0.66 0.594,-0.637 0.611,-0.608C0.627,-0.579 0.636,-0.544 0.636,-0.505C0.636,-0.48 0.631,-0.459 0.623,-0.44C0.614,-0.421 0.603,-0.406 0.59,-0.394C0.577,-0.382 0.564,-0.373 0.552,-0.367C0.578,-0.355 0.601,-0.335 0.621,-0.308C0.64,-0.28 0.65,-0.247 0.65,-0.209C0.65,-0.167 0.641,-0.13 0.622,-0.099C0.603,-0.068 0.576,-0.043 0.539,-0.026C0.502,-0.009 0.458,-0 0.405,-0L0.099,-0ZM0.233,-0.117L0.386,-0.117C0.419,-0.117 0.443,-0.126 0.46,-0.145C0.477,-0.163 0.485,-0.185 0.485,-0.21C0.485,-0.236 0.476,-0.258 0.46,-0.276C0.443,-0.293 0.418,-0.302 0.386,-0.302L0.233,-0.302L0.233,-0.117ZM0.233,-0.417L0.377,-0.417C0.408,-0.417 0.432,-0.425 0.448,-0.441C0.463,-0.456 0.471,-0.476 0.471,-0.501C0.471,-0.526 0.463,-0.546 0.448,-0.561C0.432,-0.576 0.408,-0.583 0.377,-0.583L0.233,-0.583L0.233,-0.417Z" style="fill:#252121;fill-rule:nonzero;"/>
                                        </g>
                                    </g>
                                </g>
                                <circle cx="842.5" cy="194.5" r="72.5" style="fill:none;stroke:#0661eb;stroke-width:32.63px;"/>
                            </g>
                        </g>
                        <g>
                            <g transform="matrix(1.75212,0,-3.26937e-32,1.75212,-581.517,-1045.33)">
                                <circle cx="924" cy="717" r="51" style="fill:#fff;stroke:#fff;stroke-width:1px;"/>
                            </g>
                            <g transform="matrix(1.75212,0,-3.26937e-32,1.75212,-478.576,-1024.99)">
                                <circle cx="924" cy="717" r="51" style="fill:#fff;stroke:#fff;stroke-width:1px;"/>
                            </g>
                            <g transform="matrix(1.75212,0,-3.26937e-32,1.75212,-375.634,-1045.33)">
                                <circle cx="924" cy="717" r="51" style="fill:#fff;stroke:#fff;stroke-width:1px;"/>
                            </g>
                            <g transform="matrix(1.75212,0,-3.26937e-32,1.75212,-272.692,-1024.99)">
                                <circle cx="924" cy="717" r="51" style="fill:#fff;stroke:#fff;stroke-width:1px;"/>
                            </g>
                            <g transform="matrix(1.75212,0,-3.26937e-32,1.75212,-169.751,-1044.36)">
                                <circle cx="924" cy="717" r="51" style="fill:#fff;stroke:#fff;stroke-width:1px;"/>
                            </g>
                            <g id="bingo-letter10" serif:id="bingo letter" transform="matrix(0.90829,0,-5.93949e-17,0.90829,683.972,34.2745)">
                                <circle cx="842.5" cy="194.5" r="72.5" style="fill:#fff;"/>
                                <clipPath id="_clip11">
                                    <circle cx="842.5" cy="194.5" r="72.5"/>
                                </clipPath>
                                <g clip-path="url(#_clip11)">
                                    <g transform="matrix(1,0,0,1,-37.8907,36.8592)">
                                        <g transform="matrix(106.668,0,0,106.668,842.843,196.041)">
                                            <path d="M0.352,0.01C0.291,0.01 0.239,-0 0.195,-0.02C0.151,-0.04 0.117,-0.07 0.092,-0.111C0.067,-0.151 0.054,-0.202 0.052,-0.263C0.051,-0.292 0.051,-0.32 0.051,-0.348C0.051,-0.377 0.051,-0.406 0.052,-0.435C0.054,-0.495 0.068,-0.546 0.093,-0.587C0.117,-0.627 0.152,-0.658 0.197,-0.679C0.241,-0.7 0.293,-0.71 0.352,-0.71C0.411,-0.71 0.462,-0.7 0.506,-0.679C0.551,-0.658 0.586,-0.627 0.611,-0.587C0.636,-0.546 0.65,-0.495 0.651,-0.435C0.652,-0.406 0.653,-0.377 0.653,-0.348C0.653,-0.32 0.652,-0.292 0.651,-0.263C0.649,-0.202 0.636,-0.151 0.611,-0.111C0.586,-0.07 0.552,-0.04 0.508,-0.02C0.464,-0 0.412,0.01 0.352,0.01ZM0.352,-0.119C0.391,-0.119 0.423,-0.131 0.448,-0.155C0.472,-0.178 0.486,-0.216 0.487,-0.268C0.488,-0.297 0.489,-0.325 0.489,-0.35C0.489,-0.376 0.488,-0.403 0.487,-0.432C0.486,-0.467 0.48,-0.495 0.468,-0.517C0.456,-0.539 0.44,-0.555 0.421,-0.566C0.401,-0.576 0.378,-0.581 0.352,-0.581C0.326,-0.581 0.303,-0.576 0.283,-0.566C0.263,-0.555 0.247,-0.539 0.235,-0.517C0.224,-0.495 0.217,-0.467 0.216,-0.432C0.215,-0.403 0.215,-0.376 0.215,-0.35C0.215,-0.325 0.215,-0.297 0.216,-0.268C0.218,-0.216 0.231,-0.178 0.256,-0.155C0.281,-0.131 0.313,-0.119 0.352,-0.119Z" style="fill:#252121;fill-rule:nonzero;"/>
                                        </g>
                                    </g>
                                </g>
                                <circle cx="842.5" cy="194.5" r="72.5" style="fill:none;stroke:#aa5e2a;stroke-width:32.63px;"/>
                            </g>
                            <g id="bingo-letter11" serif:id="bingo letter" filter="url(#dropshadow)" transform="matrix(0.90829,0,-5.93949e-17,0.90829,683.972,34.2745)">
                                <circle cx="842.5" cy="194.5" r="72.5" style="fill:#fff;"/>
                                <clipPath id="_clip12">
                                    <circle cx="842.5" cy="194.5" r="72.5"/>
                                </clipPath>
                                <g clip-path="url(#_clip12)">
                                    <g transform="matrix(1,0,0,1,-37.8907,36.8592)">
                                        <g transform="matrix(106.668,0,0,106.668,842.843,196.041)">
                                            <path d="M0.352,0.01C0.291,0.01 0.239,-0 0.195,-0.02C0.151,-0.04 0.117,-0.07 0.092,-0.111C0.067,-0.151 0.054,-0.202 0.052,-0.263C0.051,-0.292 0.051,-0.32 0.051,-0.348C0.051,-0.377 0.051,-0.406 0.052,-0.435C0.054,-0.495 0.068,-0.546 0.093,-0.587C0.117,-0.627 0.152,-0.658 0.197,-0.679C0.241,-0.7 0.293,-0.71 0.352,-0.71C0.411,-0.71 0.462,-0.7 0.506,-0.679C0.551,-0.658 0.586,-0.627 0.611,-0.587C0.636,-0.546 0.65,-0.495 0.651,-0.435C0.652,-0.406 0.653,-0.377 0.653,-0.348C0.653,-0.32 0.652,-0.292 0.651,-0.263C0.649,-0.202 0.636,-0.151 0.611,-0.111C0.586,-0.07 0.552,-0.04 0.508,-0.02C0.464,-0 0.412,0.01 0.352,0.01ZM0.352,-0.119C0.391,-0.119 0.423,-0.131 0.448,-0.155C0.472,-0.178 0.486,-0.216 0.487,-0.268C0.488,-0.297 0.489,-0.325 0.489,-0.35C0.489,-0.376 0.488,-0.403 0.487,-0.432C0.486,-0.467 0.48,-0.495 0.468,-0.517C0.456,-0.539 0.44,-0.555 0.421,-0.566C0.401,-0.576 0.378,-0.581 0.352,-0.581C0.326,-0.581 0.303,-0.576 0.283,-0.566C0.263,-0.555 0.247,-0.539 0.235,-0.517C0.224,-0.495 0.217,-0.467 0.216,-0.432C0.215,-0.403 0.215,-0.376 0.215,-0.35C0.215,-0.325 0.215,-0.297 0.216,-0.268C0.218,-0.216 0.231,-0.178 0.256,-0.155C0.281,-0.131 0.313,-0.119 0.352,-0.119Z" style="fill:#252121;fill-rule:nonzero;"/>
                                        </g>
                                    </g>
                                </g>
                                <circle cx="842.5" cy="194.5" r="72.5" style="fill:none;stroke:#aa5e2a;stroke-width:32.63px;"/>
                            </g>
                            <g id="bingo-letter12" serif:id="bingo letter" transform="matrix(0.90829,0,-5.93949e-17,0.90829,581.03,54.6202)">
                                <circle cx="842.5" cy="194.5" r="72.5" style="fill:#fff;"/>
                                <clipPath id="_clip13">
                                    <circle cx="842.5" cy="194.5" r="72.5"/>
                                </clipPath>
                                <g clip-path="url(#_clip13)">
                                    <g transform="matrix(1,0,0,1,-38.3707,35.7926)">
                                        <g transform="matrix(106.668,0,0,106.668,842.843,196.041)">
                                            <path d="M0.355,0.01C0.292,0.01 0.239,-0.001 0.195,-0.021C0.15,-0.043 0.116,-0.073 0.092,-0.114C0.067,-0.154 0.054,-0.203 0.052,-0.26C0.051,-0.289 0.051,-0.319 0.051,-0.352C0.051,-0.385 0.051,-0.416 0.052,-0.445C0.054,-0.501 0.067,-0.549 0.092,-0.588C0.116,-0.627 0.151,-0.658 0.196,-0.679C0.241,-0.7 0.294,-0.71 0.355,-0.71C0.404,-0.71 0.448,-0.704 0.485,-0.691C0.522,-0.678 0.554,-0.662 0.579,-0.642C0.604,-0.621 0.624,-0.599 0.637,-0.575C0.65,-0.551 0.657,-0.528 0.658,-0.506C0.658,-0.5 0.656,-0.495 0.652,-0.491C0.648,-0.486 0.643,-0.484 0.636,-0.484L0.512,-0.484C0.505,-0.484 0.5,-0.485 0.497,-0.488C0.493,-0.491 0.49,-0.495 0.487,-0.5C0.482,-0.512 0.475,-0.524 0.465,-0.537C0.454,-0.549 0.44,-0.559 0.423,-0.568C0.406,-0.577 0.383,-0.581 0.355,-0.581C0.313,-0.581 0.28,-0.57 0.256,-0.548C0.231,-0.526 0.218,-0.49 0.216,-0.44C0.214,-0.383 0.214,-0.324 0.216,-0.265C0.218,-0.213 0.232,-0.176 0.257,-0.153C0.281,-0.13 0.315,-0.119 0.357,-0.119C0.384,-0.119 0.409,-0.124 0.431,-0.134C0.452,-0.143 0.469,-0.158 0.482,-0.179C0.495,-0.2 0.501,-0.226 0.501,-0.258L0.501,-0.283L0.392,-0.283C0.385,-0.283 0.38,-0.285 0.375,-0.291C0.37,-0.296 0.368,-0.301 0.368,-0.308L0.368,-0.372C0.368,-0.379 0.37,-0.385 0.375,-0.39C0.38,-0.395 0.385,-0.397 0.392,-0.397L0.637,-0.397C0.644,-0.397 0.65,-0.395 0.655,-0.39C0.66,-0.385 0.662,-0.379 0.662,-0.372L0.662,-0.263C0.662,-0.206 0.65,-0.157 0.625,-0.116C0.6,-0.075 0.564,-0.044 0.518,-0.023C0.471,-0.001 0.417,0.01 0.355,0.01Z" style="fill:#252121;fill-rule:nonzero;"/>
                                        </g>
                                    </g>
                                </g>
                                <circle cx="842.5" cy="194.5" r="72.5" style="fill:none;stroke:#8ba949;stroke-width:32.63px;"/>
                            </g>
                            <g id="bingo-letter13" serif:id="bingo letter" filter="url(#dropshadow)" transform="matrix(0.90829,0,-5.93949e-17,0.90829,581.03,54.6202)">
                                <circle cx="842.5" cy="194.5" r="72.5" style="fill:#fff;"/>
                                <clipPath id="_clip14">
                                    <circle cx="842.5" cy="194.5" r="72.5"/>
                                </clipPath>
                                <g clip-path="url(#_clip14)">
                                    <g transform="matrix(1,0,0,1,-38.3707,35.7926)">
                                        <g transform="matrix(106.668,0,0,106.668,842.843,196.041)">
                                            <path d="M0.355,0.01C0.292,0.01 0.239,-0.001 0.195,-0.021C0.15,-0.043 0.116,-0.073 0.092,-0.114C0.067,-0.154 0.054,-0.203 0.052,-0.26C0.051,-0.289 0.051,-0.319 0.051,-0.352C0.051,-0.385 0.051,-0.416 0.052,-0.445C0.054,-0.501 0.067,-0.549 0.092,-0.588C0.116,-0.627 0.151,-0.658 0.196,-0.679C0.241,-0.7 0.294,-0.71 0.355,-0.71C0.404,-0.71 0.448,-0.704 0.485,-0.691C0.522,-0.678 0.554,-0.662 0.579,-0.642C0.604,-0.621 0.624,-0.599 0.637,-0.575C0.65,-0.551 0.657,-0.528 0.658,-0.506C0.658,-0.5 0.656,-0.495 0.652,-0.491C0.648,-0.486 0.643,-0.484 0.636,-0.484L0.512,-0.484C0.505,-0.484 0.5,-0.485 0.497,-0.488C0.493,-0.491 0.49,-0.495 0.487,-0.5C0.482,-0.512 0.475,-0.524 0.465,-0.537C0.454,-0.549 0.44,-0.559 0.423,-0.568C0.406,-0.577 0.383,-0.581 0.355,-0.581C0.313,-0.581 0.28,-0.57 0.256,-0.548C0.231,-0.526 0.218,-0.49 0.216,-0.44C0.214,-0.383 0.214,-0.324 0.216,-0.265C0.218,-0.213 0.232,-0.176 0.257,-0.153C0.281,-0.13 0.315,-0.119 0.357,-0.119C0.384,-0.119 0.409,-0.124 0.431,-0.134C0.452,-0.143 0.469,-0.158 0.482,-0.179C0.495,-0.2 0.501,-0.226 0.501,-0.258L0.501,-0.283L0.392,-0.283C0.385,-0.283 0.38,-0.285 0.375,-0.291C0.37,-0.296 0.368,-0.301 0.368,-0.308L0.368,-0.372C0.368,-0.379 0.37,-0.385 0.375,-0.39C0.38,-0.395 0.385,-0.397 0.392,-0.397L0.637,-0.397C0.644,-0.397 0.65,-0.395 0.655,-0.39C0.66,-0.385 0.662,-0.379 0.662,-0.372L0.662,-0.263C0.662,-0.206 0.65,-0.157 0.625,-0.116C0.6,-0.075 0.564,-0.044 0.518,-0.023C0.471,-0.001 0.417,0.01 0.355,0.01Z" style="fill:#252121;fill-rule:nonzero;"/>
                                        </g>
                                    </g>
                                </g>
                                <circle cx="842.5" cy="194.5" r="72.5" style="fill:none;stroke:#8ba949;stroke-width:32.63px;"/>
                            </g>
                            <g id="bingo-letter14" serif:id="bingo letter" transform="matrix(0.90829,0,-5.93949e-17,0.90829,478.088,34.2745)">
                                <circle cx="842.5" cy="194.5" r="72.5" style="fill:#fff;"/>
                                <clipPath id="_clip15">
                                    <circle cx="842.5" cy="194.5" r="72.5"/>
                                </clipPath>
                                <g clip-path="url(#_clip15)">
                                    <g transform="matrix(1,0,0,1,-38.3707,35.7926)">
                                        <g transform="matrix(106.668,0,0,106.668,842.843,196.041)">
                                            <path d="M0.099,-0C0.092,-0 0.086,-0.002 0.081,-0.007C0.076,-0.012 0.074,-0.018 0.074,-0.025L0.074,-0.675C0.074,-0.682 0.076,-0.688 0.081,-0.693C0.086,-0.698 0.092,-0.7 0.099,-0.7L0.19,-0.7C0.2,-0.7 0.207,-0.698 0.212,-0.693C0.217,-0.688 0.22,-0.685 0.221,-0.682L0.488,-0.265L0.488,-0.675C0.488,-0.682 0.49,-0.688 0.495,-0.693C0.5,-0.698 0.505,-0.7 0.512,-0.7L0.614,-0.7C0.621,-0.7 0.627,-0.698 0.632,-0.693C0.637,-0.688 0.639,-0.682 0.639,-0.675L0.639,-0.025C0.639,-0.018 0.637,-0.013 0.632,-0.008C0.627,-0.003 0.621,-0 0.614,-0L0.522,-0C0.512,-0 0.505,-0.003 0.5,-0.008C0.496,-0.013 0.493,-0.016 0.491,-0.018L0.225,-0.422L0.225,-0.025C0.225,-0.018 0.223,-0.012 0.218,-0.007C0.213,-0.002 0.207,-0 0.2,-0L0.099,-0Z" style="fill:#252121;fill-rule:nonzero;"/>
                                        </g>
                                    </g>
                                </g>
                                <circle cx="842.5" cy="194.5" r="72.5" style="fill:none;stroke:#9399c9;stroke-width:32.63px;"/>
                            </g>
                            <g id="bingo-letter15" serif:id="bingo letter" filter="url(#dropshadow)" transform="matrix(0.90829,0,-5.93949e-17,0.90829,478.088,34.2745)">
                                <circle cx="842.5" cy="194.5" r="72.5" style="fill:#fff;"/>
                                <clipPath id="_clip16">
                                    <circle cx="842.5" cy="194.5" r="72.5"/>
                                </clipPath>
                                <g clip-path="url(#_clip16)">
                                    <g transform="matrix(1,0,0,1,-38.3707,35.7926)">
                                        <g transform="matrix(106.668,0,0,106.668,842.843,196.041)">
                                            <path d="M0.099,-0C0.092,-0 0.086,-0.002 0.081,-0.007C0.076,-0.012 0.074,-0.018 0.074,-0.025L0.074,-0.675C0.074,-0.682 0.076,-0.688 0.081,-0.693C0.086,-0.698 0.092,-0.7 0.099,-0.7L0.19,-0.7C0.2,-0.7 0.207,-0.698 0.212,-0.693C0.217,-0.688 0.22,-0.685 0.221,-0.682L0.488,-0.265L0.488,-0.675C0.488,-0.682 0.49,-0.688 0.495,-0.693C0.5,-0.698 0.505,-0.7 0.512,-0.7L0.614,-0.7C0.621,-0.7 0.627,-0.698 0.632,-0.693C0.637,-0.688 0.639,-0.682 0.639,-0.675L0.639,-0.025C0.639,-0.018 0.637,-0.013 0.632,-0.008C0.627,-0.003 0.621,-0 0.614,-0L0.522,-0C0.512,-0 0.505,-0.003 0.5,-0.008C0.496,-0.013 0.493,-0.016 0.491,-0.018L0.225,-0.422L0.225,-0.025C0.225,-0.018 0.223,-0.012 0.218,-0.007C0.213,-0.002 0.207,-0 0.2,-0L0.099,-0Z" style="fill:#252121;fill-rule:nonzero;"/>
                                        </g>
                                    </g>
                                </g>
                                <circle cx="842.5" cy="194.5" r="72.5" style="fill:none;stroke:#9399c9;stroke-width:32.63px;"/>
                            </g>
                            <g id="bingo-letter16" serif:id="bingo letter" transform="matrix(0.90829,0,-5.93949e-17,0.90829,375.147,54.6202)">
                                <circle cx="842.5" cy="194.5" r="72.5" style="fill:#fff;"/>
                                <clipPath id="_clip17">
                                    <circle cx="842.5" cy="194.5" r="72.5"/>
                                </clipPath>
                                <g clip-path="url(#_clip17)">
                                    <g transform="matrix(1,0,0,1,-10.2954,35.7926)">
                                        <g transform="matrix(106.668,0,0,106.668,836.209,196.041)">
                                            <path d="M0.099,-0C0.092,-0 0.086,-0.002 0.081,-0.007C0.076,-0.012 0.074,-0.018 0.074,-0.025L0.074,-0.675C0.074,-0.682 0.076,-0.688 0.081,-0.693C0.086,-0.698 0.092,-0.7 0.099,-0.7L0.212,-0.7C0.219,-0.7 0.225,-0.698 0.23,-0.693C0.235,-0.688 0.237,-0.682 0.237,-0.675L0.237,-0.025C0.237,-0.018 0.235,-0.012 0.23,-0.007C0.225,-0.002 0.219,-0 0.212,-0L0.099,-0Z" style="fill:#252121;fill-rule:nonzero;"/>
                                        </g>
                                    </g>
                                </g>
                                <circle cx="842.5" cy="194.5" r="72.5" style="fill:none;stroke:#977ab2;stroke-width:32.63px;"/>
                            </g>
                            <g id="bingo-letter17" serif:id="bingo letter" filter="url(#dropshadow)" transform="matrix(0.90829,0,-5.93949e-17,0.90829,375.147,54.6202)">
                                <circle cx="842.5" cy="194.5" r="72.5" style="fill:#fff;"/>
                                <clipPath id="_clip18">
                                    <circle cx="842.5" cy="194.5" r="72.5"/>
                                </clipPath>
                                <g clip-path="url(#_clip18)">
                                    <g transform="matrix(1,0,0,1,-10.2954,35.7926)">
                                        <g transform="matrix(106.668,0,0,106.668,836.209,196.041)">
                                            <path d="M0.099,-0C0.092,-0 0.086,-0.002 0.081,-0.007C0.076,-0.012 0.074,-0.018 0.074,-0.025L0.074,-0.675C0.074,-0.682 0.076,-0.688 0.081,-0.693C0.086,-0.698 0.092,-0.7 0.099,-0.7L0.212,-0.7C0.219,-0.7 0.225,-0.698 0.23,-0.693C0.235,-0.688 0.237,-0.682 0.237,-0.675L0.237,-0.025C0.237,-0.018 0.235,-0.012 0.23,-0.007C0.225,-0.002 0.219,-0 0.212,-0L0.099,-0Z" style="fill:#252121;fill-rule:nonzero;"/>
                                        </g>
                                    </g>
                                </g>
                                <circle cx="842.5" cy="194.5" r="72.5" style="fill:none;stroke:#977ab2;stroke-width:32.63px;"/>
                            </g>
                            <g id="bingo-letter18" serif:id="bingo letter" transform="matrix(0.90829,0,-5.93949e-17,0.90829,272.205,34.2745)">
                                <circle cx="842.5" cy="194.5" r="72.5" style="fill:#fff;"/>
                                <clipPath id="_clip19">
                                    <circle cx="842.5" cy="194.5" r="72.5"/>
                                </clipPath>
                                <g clip-path="url(#_clip19)">
                                    <g transform="matrix(1,0,0,1,-38.9574,35.7926)">
                                        <g transform="matrix(106.668,0,0,106.668,842.843,196.041)">
                                            <path d="M0.099,-0C0.092,-0 0.086,-0.002 0.081,-0.007C0.076,-0.012 0.074,-0.018 0.074,-0.025L0.074,-0.675C0.074,-0.682 0.076,-0.688 0.081,-0.693C0.086,-0.698 0.092,-0.7 0.099,-0.7L0.396,-0.7C0.451,-0.7 0.497,-0.692 0.532,-0.676C0.567,-0.66 0.594,-0.637 0.611,-0.608C0.627,-0.579 0.636,-0.544 0.636,-0.505C0.636,-0.48 0.631,-0.459 0.623,-0.44C0.614,-0.421 0.603,-0.406 0.59,-0.394C0.577,-0.382 0.564,-0.373 0.552,-0.367C0.578,-0.355 0.601,-0.335 0.621,-0.308C0.64,-0.28 0.65,-0.247 0.65,-0.209C0.65,-0.167 0.641,-0.13 0.622,-0.099C0.603,-0.068 0.576,-0.043 0.539,-0.026C0.502,-0.009 0.458,-0 0.405,-0L0.099,-0ZM0.233,-0.117L0.386,-0.117C0.419,-0.117 0.443,-0.126 0.46,-0.145C0.477,-0.163 0.485,-0.185 0.485,-0.21C0.485,-0.236 0.476,-0.258 0.46,-0.276C0.443,-0.293 0.418,-0.302 0.386,-0.302L0.233,-0.302L0.233,-0.117ZM0.233,-0.417L0.377,-0.417C0.408,-0.417 0.432,-0.425 0.448,-0.441C0.463,-0.456 0.471,-0.476 0.471,-0.501C0.471,-0.526 0.463,-0.546 0.448,-0.561C0.432,-0.576 0.408,-0.583 0.377,-0.583L0.233,-0.583L0.233,-0.417Z" style="fill:#252121;fill-rule:nonzero;"/>
                                        </g>
                                    </g>
                                </g>
                                <circle cx="842.5" cy="194.5" r="72.5" style="fill:none;stroke:#0661eb;stroke-width:32.63px;"/>
                            </g>
                            <g id="bingo-letter19" serif:id="bingo letter" filter="url(#dropshadow)" transform="matrix(0.90829,0,-5.93949e-17,0.90829,272.205,34.2745)">
                                <circle cx="842.5" cy="194.5" r="72.5" style="fill:#fff;"/>
                                <clipPath id="_clip20">
                                    <circle cx="842.5" cy="194.5" r="72.5"/>
                                </clipPath>
                                <g clip-path="url(#_clip20)">
                                    <g transform="matrix(1,0,0,1,-38.9574,35.7926)">
                                        <g transform="matrix(106.668,0,0,106.668,842.843,196.041)">
                                            <path d="M0.099,-0C0.092,-0 0.086,-0.002 0.081,-0.007C0.076,-0.012 0.074,-0.018 0.074,-0.025L0.074,-0.675C0.074,-0.682 0.076,-0.688 0.081,-0.693C0.086,-0.698 0.092,-0.7 0.099,-0.7L0.396,-0.7C0.451,-0.7 0.497,-0.692 0.532,-0.676C0.567,-0.66 0.594,-0.637 0.611,-0.608C0.627,-0.579 0.636,-0.544 0.636,-0.505C0.636,-0.48 0.631,-0.459 0.623,-0.44C0.614,-0.421 0.603,-0.406 0.59,-0.394C0.577,-0.382 0.564,-0.373 0.552,-0.367C0.578,-0.355 0.601,-0.335 0.621,-0.308C0.64,-0.28 0.65,-0.247 0.65,-0.209C0.65,-0.167 0.641,-0.13 0.622,-0.099C0.603,-0.068 0.576,-0.043 0.539,-0.026C0.502,-0.009 0.458,-0 0.405,-0L0.099,-0ZM0.233,-0.117L0.386,-0.117C0.419,-0.117 0.443,-0.126 0.46,-0.145C0.477,-0.163 0.485,-0.185 0.485,-0.21C0.485,-0.236 0.476,-0.258 0.46,-0.276C0.443,-0.293 0.418,-0.302 0.386,-0.302L0.233,-0.302L0.233,-0.117ZM0.233,-0.417L0.377,-0.417C0.408,-0.417 0.432,-0.425 0.448,-0.441C0.463,-0.456 0.471,-0.476 0.471,-0.501C0.471,-0.526 0.463,-0.546 0.448,-0.561C0.432,-0.576 0.408,-0.583 0.377,-0.583L0.233,-0.583L0.233,-0.417Z" style="fill:#252121;fill-rule:nonzero;"/>
                                        </g>
                                    </g>
                                </g>
                                <circle cx="842.5" cy="194.5" r="72.5" style="fill:none;stroke:#0661eb;stroke-width:32.63px;"/>
                            </g>
                        </g>
                    </g>
                </g>
            </g>
        </g>
    </g>
</svg>
