<svg xmlns="http://www.w3.org/2000/svg" viewBox="0 0 402.5 507.5"><defs><style>.cls-1{fill:#fff;}</style></defs><g id="Layer_2" data-name="Layer 2"><g id="Layer_1-2" data-name="Layer 1"><g id="Layer_2-2" data-name="Layer 2"><g id="Layer_1-2-2" data-name="Layer 1-2"><path class="cls-1" d="M122.5,227.5h70v70h-70Z"/><path class="cls-1" d="M122.5,210h70V140h-70Zm35-52.5a17.51,17.51,0,1,1-12.37,5.13A17.5,17.5,0,0,1,157.5,157.5Z"/><path class="cls-1" d="M122.5,52.5h70v70h-70Z"/><path class="cls-1" d="M210,315h70v70H210Z"/><path class="cls-1" d="M210,297.5h70v-70H210ZM245,245a17.51,17.51,0,1,1-12.37,5.13A17.5,17.5,0,0,1,245,245Z"/><path class="cls-1" d="M35,227.5h70v70H35Z"/><path class="cls-1" d="M122.5,315h70v70h-70Z"/><path class="cls-1" d="M35,315h70v70H35Z"/><path class="cls-1" d="M35,122.5h70v-70H35ZM70,70a17.51,17.51,0,1,1-12.37,5.13A17.5,17.5,0,0,1,70,70Z"/><path class="cls-1" d="M35,140h70v70H35Z"/><path class="cls-1" d="M297.5,52.5h70v70h-70Z"/><path class="cls-1" d="M297.5,140h70v70h-70Z"/><path class="cls-1" d="M0,0V507.5H402.5V0ZM367.5,472.5H35V455H367.5Zm-315-35V420H350v17.5ZM385,393.75a8.74,8.74,0,0,1-8.73,8.75h-350a8.75,8.75,0,0,1-8.75-8.75v-350A8.75,8.75,0,0,1,26.25,35h350A8.74,8.74,0,0,1,385,43.73v350Z"/><path class="cls-1" d="M297.5,227.5h70v70h-70Z"/><path class="cls-1" d="M297.5,385h70V315h-70Zm35-52.5a17.51,17.51,0,1,1-12.37,5.13A17.5,17.5,0,0,1,332.5,332.5Z"/><path class="cls-1" d="M210,52.5h70v70H210Z"/><path class="cls-1" d="M210,140h70v70H210Z"/></g></g></g></g></svg>