<svg xmlns="http://www.w3.org/2000/svg" viewBox="0 0 560 560"><defs><style>.cls-1{fill:#fff;}</style></defs><g id="Layer_2" data-name="Layer 2"><g id="Layer_1-2" data-name="Layer 1"><path class="cls-1" d="M280,0A280,280,0,1,0,420,37.51,280,280,0,0,0,280,0Zm0,519.75a240.09,240.09,0,1,1,169.49-70.29A239.79,239.79,0,0,1,280,519.75Z"/><path class="cls-1" d="M280,98.61A11.45,11.45,0,0,0,291.46,87.5V75.16a11.46,11.46,0,0,0-22.92,0V87.5A11.45,11.45,0,0,0,280,98.61Z"/><path class="cls-1" d="M143.32,127.05a11.32,11.32,0,0,0-8.13-3.32,11,11,0,0,0-8.06,3.32,11.39,11.39,0,0,0,0,16.27l8.75,8.75A11.35,11.35,0,0,0,144,155.4a11,11,0,0,0,8-3.33,11.55,11.55,0,0,0,0-16.27Z"/><path class="cls-1" d="M87.5,268.54H75.25a11.46,11.46,0,0,0,0,22.92H87.5a11.46,11.46,0,1,0,0-22.92Z"/><path class="cls-1" d="M143.68,404.86a11.69,11.69,0,0,0-8.13,3.32l-8.75,8.75a11.1,11.1,0,0,0-3.42,8.05,11.48,11.48,0,0,0,3.42,8.14,11,11,0,0,0,8,3.33,11.43,11.43,0,0,0,8.14-3.33l8.75-8.75a11.55,11.55,0,0,0,0-16.27,11.36,11.36,0,0,0-8-3.24Z"/><path class="cls-1" d="M280,461.39a11.47,11.47,0,0,0-11.46,11.11v12.25a11.46,11.46,0,0,0,22.92,0V472.5A11.45,11.45,0,0,0,280,461.39Z"/><path class="cls-1" d="M424.46,408.19a11.56,11.56,0,0,0-16.19,0,11.39,11.39,0,0,0,0,16.27l8.75,8.75a11.39,11.39,0,0,0,8.14,3.33,11,11,0,0,0,8-3.33,11.46,11.46,0,0,0,3.42-8.13,11.11,11.11,0,0,0-3.42-8.05Z"/><path class="cls-1" d="M484.75,268.54H472.5a11.46,11.46,0,0,0,0,22.92h12.25a11.46,11.46,0,0,0,0-22.92Z"/><path class="cls-1" d="M424.81,123.73a11.36,11.36,0,0,0-8.13,3.32l-8.75,8.75a11.37,11.37,0,0,0,0,16.28,11.55,11.55,0,0,0,16.18,0l8.75-8.75a11.08,11.08,0,0,0,3.41-8.05,11.43,11.43,0,0,0-3.41-8.14,11,11,0,0,0-8.05-3.41Z"/><path class="cls-1" d="M392.35,313.07,310.19,280a30.43,30.43,0,0,0-18.73-27.74v-122a11.46,11.46,0,1,0-22.92,0v121.8A30.1,30.1,0,1,0,301.44,301l82.33,33.43a11.5,11.5,0,1,0,8.58-21.35Z"/></g></g></svg>