<svg xmlns="http://www.w3.org/2000/svg" viewBox="0 0 560 560"><defs><style>.cls-1{fill:#fff;}</style></defs><g id="Layer_2" data-name="Layer 2"><g id="Layer_1-2" data-name="Layer 1"><path class="cls-1" d="M265.3,252.7h29.43v54.6H265.3Z"/><path class="cls-1" d="M391.3,353.5h29.43v54.6H391.3Z"/><path class="cls-1" d="M280,0C125.37,0,0,125.37,0,280S125.37,560,280,560,560,434.63,560,280,434.63,0,280,0ZM189.7,217a10.49,10.49,0,0,1-10.5,10.5H164.5V443.8h-21V227.5H128.8A10.49,10.49,0,0,1,118.3,217V141.4a10.49,10.49,0,0,1,10.5-10.5h14.7V116.2h21v14.7h14.7a10.49,10.49,0,0,1,10.5,10.5Zm126,100.8a10.49,10.49,0,0,1-10.5,10.5H290.5V443.8h-21V328.3H254.8a10.49,10.49,0,0,1-10.5-10.5V242.2a10.49,10.49,0,0,1,10.5-10.5h14.7V116.2h21V231.7h14.7a10.49,10.49,0,0,1,10.5,10.5Zm126,100.8a10.49,10.49,0,0,1-10.5,10.5H416.5v14.7h-21V429.1H380.8a10.49,10.49,0,0,1-10.5-10.5V343a10.49,10.49,0,0,1,10.5-10.5h14.7V116.2h21V332.5h14.7A10.49,10.49,0,0,1,441.7,343Z"/><path class="cls-1" d="M139.3,151.9h29.43v54.6H139.3Z"/></g></g></svg>