<svg xmlns="http://www.w3.org/2000/svg" viewBox="0 0 350.7 431.67"><defs><style>.cls-1{fill:#fff;}</style></defs><g id="Layer_2" data-name="Layer 2"><g id="Layer_1-2" data-name="Layer 1"><g id="Layer_2-2" data-name="Layer 2"><g id="Layer_1-2-2" data-name="Layer 1-2"><path class="cls-1" d="M296.56,161.94H283.18V110.19C283.18,48.39,238.59,0,174.87,0S67.59,49.35,67.59,110.19v51.27H54.14C24.43,161.46.48,185.41,0,215.6V377.53c0,29.71,24,53.66,54.14,54.14H296.56c29.71,0,53.66-24,54.14-54.14V215.6C350.7,185.89,326.27,161.94,296.56,161.94Zm-202.18,0V110.19c0-46,31.66-83.36,80.49-83.36,48.39,0,81.45,36.41,81.45,83.36v51.27H94.38Zm229,215.59a26.78,26.78,0,0,1-26.74,26.83H54.14a26.78,26.78,0,0,1-26.83-26.74v-162a26.78,26.78,0,0,1,26.74-26.83H296.56a26.78,26.78,0,0,1,26.83,26.74v162ZM202.18,269.73a27,27,0,0,1-13.41,23.48h0v44.08a13.42,13.42,0,0,1-26.83,0h0V293.21h0a27,27,0,0,1,13.45-50.31c14.85-.47,26.82,11.5,26.82,26.83Z"/></g></g></g></g></svg>