<svg xmlns="http://www.w3.org/2000/svg" viewBox="0 0 431.67 431.67"><defs><style>.cls-1{fill:#fff;}</style></defs><g id="Layer_2" data-name="Layer 2"><g id="Layer_1-2" data-name="Layer 1"><g id="Layer_2-2" data-name="Layer 2"><g id="Layer_1-2-2" data-name="Layer 1-2"><path class="cls-1" d="M359.72,0H71.94A72,72,0,0,0,0,71.94V359.72a72,72,0,0,0,71.94,71.95H359.72a72,72,0,0,0,71.95-71.95V71.94A72,72,0,0,0,359.72,0Zm0,48h0a23.57,23.57,0,0,1,10.81,2.69L232.28,179.72a24.08,24.08,0,0,1-32.82-.08L61.15,50.64A23.74,23.74,0,0,1,71.94,48Zm0,335.75H71.94a24,24,0,0,1-24-24V103.92l118.8,110.71h0a72.11,72.11,0,0,0,98.29.1L383.76,104V359.72a24,24,0,0,1-24,24Z"/></g></g></g></g></svg>