<svg xmlns="http://www.w3.org/2000/svg" viewBox="0 0 476.56 476.56"><g id="Layer_2" data-name="Layer 2"><g id="Layer_1-2" data-name="Layer 1"><path d="M474.88,208.32A237.29,237.29,0,0,0,387,52.08c-6.16-5-12.88-9.52-19.6-14l-7.28-4.48h-.56A236.26,236.26,0,0,0,238,0C107,.56,0,107.52,0,238.56s107,238,238,238A237.76,237.76,0,0,0,359.52,443h.56l7.28-4.48a236.54,236.54,0,0,0,109.2-199.92,273.63,273.63,0,0,0-1.68-30.24ZM300.72,433.44A211.79,211.79,0,0,1,238.56,443C126,443,34.16,351.12,34.16,238.56S126,34.16,238.56,34.16a209,209,0,0,1,62.16,9.52,10.67,10.67,0,0,1,2.8,18.48c-56.55,39.76-92.39,105.28-92.39,176.4A215.12,215.12,0,0,0,303.52,415a10.67,10.67,0,0,1-2.8,18.48ZM343.84,243,330.4,256.48a6.36,6.36,0,0,0-1.68,4.48l3.36,18.48a4.86,4.86,0,0,1-7.28,5l-16.8-9a6.13,6.13,0,0,0-4.48,0l-16.8,9c-3.92,1.68-7.84-1.12-7.28-5L282.8,261c0-1.68,0-3.36-1.68-4.48L267.68,243a5,5,0,0,1,2.8-8.4l18.48-2.8c1.68,0,2.8-1.12,3.92-2.8l8.4-16.8a4.88,4.88,0,0,1,9,0l8.4,16.8c.56,1.68,2.24,2.24,3.92,2.8l18.48,2.8a5,5,0,0,1,2.8,8.4Zm54.32,86.8-9.51,9.52a2,2,0,0,0-.56,1.12l2.23,13.45c0,1.12-.55,1.67-1.67,1.12l-12.32-6.16H375.2l-12.32,6.16c-.55.55-1.68,0-1.68-1.12l2.24-13.45c0-.55,0-.55-.56-1.12l-9.52-9.52c-.55-.56-.55-1.68.56-1.68l13.44-1.68c.56,0,.56,0,.56-.55l6.16-12.32c.56-.56,1.68-.56,1.68,0l6.16,12.32a.55.55,0,0,0,.56.55l13.44,1.68C398.72,328.16,398.72,329.28,398.16,329.84ZM401.52,149,392,158.48a2,2,0,0,0-.55,1.12l2.23,13.45c0,1.12-.55,1.67-1.68,1.12L379.68,168h-1.12l-12.32,6.16c-.56.55-1.68,0-1.68-1.12l2.24-13.45c0-.55,0-.55-.56-1.12L357.85,149c-.56-.56-.56-1.68.55-1.68l13.44-2.23c.56,0,.56,0,.56-.56l6.16-12.32c.56-.56,1.68-.56,1.68,0l6.16,12.32a.55.55,0,0,0,.56.56l13.44,2.23C402.08,147.28,402.08,148.4,401.52,149Z"/></g></g></svg>