<svg xmlns="http://www.w3.org/2000/svg" viewBox="0 0 472.5 507.5"><defs><style>.cls-1{fill:#fff;}</style></defs><g id="Layer_2" data-name="Layer 2"><g id="Layer_1-2" data-name="Layer 1"><g id="Layer_2-2" data-name="Layer 2"><g id="Layer_1-2-2" data-name="Layer 1-2"><path class="cls-1" d="M437.5,201.25A217.32,217.32,0,0,0,373.7,46.84L361.31,59.19A199.93,199.93,0,0,1,420,201.25Z"/><path class="cls-1" d="M76.68,343.8A200,200,0,0,1,17.5,201.24H0a217.31,217.31,0,0,0,64.34,155Z"/><path class="cls-1" d="M236.41,231.29a34.23,34.23,0,0,1-8.9,3.71v97.05A130.47,130.47,0,0,0,305,299.91Z"/><path class="cls-1" d="M249.75,0h-62l31,80.61Z"/><path class="cls-1" d="M349.55,210h-97a34.88,34.88,0,0,1-3.72,8.92l68.62,68.62A130.55,130.55,0,0,0,349.55,210Z"/><path class="cls-1" d="M210,235a34.32,34.32,0,0,1-8.91-3.72L132.47,299.9A130.53,130.53,0,0,0,210,332.05Z"/><path class="cls-1" d="M210,167.48V106.63L196.68,72h0a130.22,130.22,0,0,0-64.29,30.53l68.7,68.69A34.67,34.67,0,0,1,210,167.5Z"/><path class="cls-1" d="M188.7,218.91A35,35,0,0,1,185,210H88a130.49,130.49,0,0,0,32.14,77.54Z"/><path class="cls-1" d="M317.53,114.84,248.8,183.58a35.21,35.21,0,0,1,3.71,8.92h97.13a130.93,130.93,0,0,0-32.11-77.66Z"/><path class="cls-1" d="M236.25,201.25a17.48,17.48,0,1,0-5.12,12.38A17.48,17.48,0,0,0,236.25,201.25Z"/><path class="cls-1" d="M227.5,106.61v60.88a35,35,0,0,1,8.91,3.71l68.7-68.69h0A130.27,130.27,0,0,0,240.82,72Z"/><path class="cls-1" d="M253.75,437.5a8.73,8.73,0,0,0,8.75-8.73V379.52a177.54,177.54,0,0,1-87.5,0v49.23a8.77,8.77,0,0,0,8.75,8.75Z"/><path class="cls-1" d="M253.57,38.82l-6.35,16.51a148.75,148.75,0,1,1-56.95,0l-6.35-16.51a166.25,166.25,0,1,0,69.65,0Z"/><path class="cls-1" d="M367.5,402.5H332.58l20,35H367.5a8.73,8.73,0,0,0,8.75-8.73V411.25a8.74,8.74,0,0,0-8.73-8.75Z"/><path class="cls-1" d="M87.91,192.5H185a34.36,34.36,0,0,1,3.71-8.92L120,114.84A131,131,0,0,0,88,192.5Z"/><path class="cls-1" d="M367.5,490H70a8.75,8.75,0,0,0-8.75,8.75h0v8.75h315v-8.75a8.74,8.74,0,0,0-8.73-8.75Z"/><path class="cls-1" d="M144.19,369,85.08,472.5H352.42L293.31,369c-4.38,1.93-8.8,3.63-13.31,5.25v54.46A26.26,26.26,0,0,1,253.77,455h-70a26.27,26.27,0,0,1-26.25-26.25V374.27c-4.52-1.6-9-3.27-13.31-5.24Z"/><path class="cls-1" d="M455,253.75a17.52,17.52,0,0,0-17.5,17.5V280h35v-8.75A17.5,17.5,0,0,0,455,253.75Z"/><path class="cls-1" d="M437.5,306.25a17.5,17.5,0,0,0,35,0V297.5h-35Z"/><path class="cls-1" d="M446.25,340v45A26.24,26.24,0,0,1,420,411.25H393.75v17.5H420A43.79,43.79,0,0,0,463.75,385V340A31.37,31.37,0,0,1,446.25,340Z"/></g></g></g></g></svg>