<svg xmlns="http://www.w3.org/2000/svg" viewBox="0 0 560 560.03"><defs><style>.cls-1{fill:#252121;}</style></defs><g id="Layer_2" data-name="Layer 2"><g id="Layer_1-2" data-name="Layer 1"><g id="Layer_2-2" data-name="Layer 2"><g id="Layer_1-2-2" data-name="Layer 1-2"><path class="cls-1" d="M526.48,280c0-29.18,30.25-64.57,30.25-64.57,5.85-6.85,3.62-14.67-5-17.41,0,0-46.73-14.88-62.13-39.06S481,92.6,481,92.6c1.42-8.9-4.7-15-13.58-13.59,0,0-42.18,6.71-66.37-8.63S362,8.23,362,8.23c-2.74-8.57-10.57-10.81-17.41-5,0,0-35.38,30.21-64.55,30.26s-64.6-30.23-64.6-30.23c-6.84-5.85-14.67-3.61-17.41,5C198,8.26,183.16,55,159,70.4S92.59,79,92.59,79c-8.88-1.41-15,4.7-13.59,13.59,0,0,6.72,42.19-8.63,66.38S8.23,198,8.23,198c-8.57,2.73-10.81,10.56-5,17.41,0,0,30.21,35.37,30.26,64.55s-30.23,64.6-30.23,64.6c-5.85,6.85-3.61,14.68,5,17.4C8.26,362,55,376.84,70.4,401S79,467.4,79,467.4c-1.42,8.89,4.7,15,13.59,13.59,0,0,42.18-6.71,66.37,8.63s39,62.14,39,62.14c2.73,8.58,10.56,10.82,17.41,5,0,0,35.37-30.2,64.55-30.25s64.56,30.26,64.56,30.26c6.85,5.85,14.68,3.6,17.41-5,0,0,14.88-46.74,39.06-62.12S467.41,481,467.41,481c8.88,1.41,15-4.7,13.59-13.59,0,0-6.71-42.17,8.62-66.36S551.77,362,551.77,362c8.57-2.73,10.81-10.55,5-17.41,0,0-30.21-35.37-30.26-64.53ZM280,491.07c-116.57,0-211.07-94.5-211.07-211.07S163.42,68.93,280,68.93,491.06,163.43,491.06,280,396.57,491.07,280,491.07ZM461.93,280c0,100.48-81.45,181.94-181.93,181.94a181.94,181.94,0,0,1,0-363.87C380.47,98.07,461.93,179.53,461.93,280Z"/></g></g></g></g></svg>