<svg xmlns="http://www.w3.org/2000/svg" viewBox="0 0 408.34 431.67"><defs><style>.cls-1{fill:#fff;fill-rule:evenodd;}</style></defs><g id="Layer_2" data-name="Layer 2"><g id="Layer_1-2" data-name="Layer 1"><g id="Layer_2-2" data-name="Layer 2"><g id="Layer_1-2-2" data-name="Layer 1-2"><path class="cls-1" d="M204.17,35a87.5,87.5,0,1,0,87.5,87.5h0A87.51,87.51,0,0,0,204.17,35ZM81.67,122.5A122.5,122.5,0,1,1,204.17,245,122.51,122.51,0,0,1,81.67,122.5Z"/><path class="cls-1" d="M35.9,396.67H372.44a169.18,169.18,0,0,0-336.54,0ZM0,414.17C0,301.41,91.41,210,204.17,210s204.17,91.41,204.17,204.17a17.52,17.52,0,0,1-17.5,17.5H17.5A17.52,17.52,0,0,1,0,414.17Z"/></g></g></g></g></svg>